solid OpenSCAD_Model
  facet normal -1.16846e-07 -0.866025 0.5
    outer loop
      vertex -20.3311 -4.6839 15.868
      vertex -15.4697 -3.3573 18.1657
      vertex -21.5726 -3.79264 17.4117
    endloop
  endfacet
  facet normal 5.27167e-08 -0.866025 0.5
    outer loop
      vertex -15.4697 -3.3573 18.1657
      vertex -15.4861 -4.37628 16.4008
      vertex -9.28436 -3.81598 17.3713
    endloop
  endfacet
  facet normal -5.7625e-08 -0.866025 0.5
    outer loop
      vertex -15.4697 -3.3573 18.1657
      vertex -20.3311 -4.6839 15.868
      vertex -15.4861 -4.37628 16.4008
    endloop
  endfacet
  facet normal -8.70137e-08 -0.866025 0.5
    outer loop
      vertex -23.5391 -5.58615 14.3053
      vertex -21.5726 -3.79264 17.4117
      vertex -25.7639 -5.05881 15.2186
    endloop
  endfacet
  facet normal 2.35322e-08 -0.866025 0.5
    outer loop
      vertex -21.5726 -3.79264 17.4117
      vertex -23.5391 -5.58615 14.3053
      vertex -20.3311 -4.6839 15.868
    endloop
  endfacet
  facet normal -1.75621e-07 -0.866025 0.5
    outer loop
      vertex -25.7639 -5.05881 15.2186
      vertex -24.679 -6.91825 11.998
      vertex -23.5391 -5.58615 14.3053
    endloop
  endfacet
  facet normal -7.14325e-08 -0.866025 0.5
    outer loop
      vertex -27.269 -6.92374 11.9885
      vertex -24.679 -6.91825 11.998
      vertex -25.7639 -5.05881 15.2186
    endloop
  endfacet
  facet normal -7.16548e-08 -0.866025 0.5
    outer loop
      vertex -24.0665 -9.50141 7.52384
      vertex -24.679 -6.91825 11.998
      vertex -27.269 -6.92374 11.9885
    endloop
  endfacet
  facet normal -2.62184e-08 -0.866025 0.5
    outer loop
      vertex -15.2087 -10.5012 5.79222
      vertex -22.4844 -8.7255 8.86776
      vertex -24.0665 -9.50141 7.52384
    endloop
  endfacet
  facet normal -2.03304e-07 -0.866025 0.5
    outer loop
      vertex -24.679 -6.91825 11.998
      vertex -24.0665 -9.50141 7.52384
      vertex -22.4844 -8.7255 8.86776
    endloop
  endfacet
  facet normal 3.94429e-08 -0.866025 0.5
    outer loop
      vertex -8.71033 -5.09726 15.152
      vertex -9.28436 -3.81598 17.3713
      vertex -15.4861 -4.37628 16.4008
    endloop
  endfacet
  facet normal 1.0081e-09 -0.866025 0.5
    outer loop
      vertex -8.71033 -5.09726 15.152
      vertex -5.1535 -5.11511 15.1211
      vertex -9.28436 -3.81598 17.3713
    endloop
  endfacet
  facet normal 9.08368e-10 -0.866025 0.5
    outer loop
      vertex -6.32355 -6.93335 11.9718
      vertex -5.1535 -5.11511 15.1211
      vertex -8.71033 -5.09726 15.152
    endloop
  endfacet
  facet normal -1.00162e-07 -0.866025 0.5
    outer loop
      vertex -5.1535 -5.11511 15.1211
      vertex -6.32355 -6.93335 11.9718
      vertex -3.75 -6.92923 11.979
    endloop
  endfacet
  facet normal -7.57193e-08 -0.866025 0.5
    outer loop
      vertex -5.30182 -8.81476 8.71315
      vertex -6.32355 -6.93335 11.9718
      vertex -8.68835 -8.75571 8.81543
    endloop
  endfacet
  facet normal -1.0075e-07 -0.866025 0.5
    outer loop
      vertex -6.32355 -6.93335 11.9718
      vertex -5.30182 -8.81476 8.71315
      vertex -3.75 -6.92923 11.979
    endloop
  endfacet
  facet normal -1.49474e-08 -0.866025 0.5
    outer loop
      vertex -9.5343 -10.0727 6.53434
      vertex -8.68835 -8.75571 8.81543
      vertex -15.1593 -9.48218 7.55714
    endloop
  endfacet
  facet normal -7.92051e-08 -0.866025 0.5
    outer loop
      vertex -8.68835 -8.75571 8.81543
      vertex -9.5343 -10.0727 6.53434
      vertex -5.30182 -8.81476 8.71315
    endloop
  endfacet
  facet normal 4.63962e-08 -0.866025 0.5
    outer loop
      vertex -22.4844 -8.7255 8.86776
      vertex -15.2087 -10.5012 5.79222
      vertex -15.1593 -9.48218 7.55714
    endloop
  endfacet
  facet normal -2.31882e-08 -0.866025 0.5
    outer loop
      vertex -15.1593 -9.48218 7.55714
      vertex -15.2087 -10.5012 5.79222
      vertex -9.5343 -10.0727 6.53434
    endloop
  endfacet
  facet normal -0.532425 -0.423239 -0.733071
    outer loop
      vertex -9.28436 -4.68201 17.8713
      vertex -5.1535 -5.11511 15.1211
      vertex -5.1535 -5.98114 15.6211
    endloop
  endfacet
  facet normal -0.532425 -0.423239 -0.733071
    outer loop
      vertex -5.1535 -5.11511 15.1211
      vertex -9.28436 -4.68201 17.8713
      vertex -9.28436 -3.81598 17.3713
    endloop
  endfacet
  facet normal -0.146708 -0.49459 -0.856655
    outer loop
      vertex -15.4697 -4.22333 18.6657
      vertex -9.28436 -3.81598 17.3713
      vertex -9.28436 -4.68201 17.8713
    endloop
  endfacet
  facet normal -0.146708 -0.49459 -0.856655
    outer loop
      vertex -9.28436 -3.81598 17.3713
      vertex -15.4697 -4.22333 18.6657
      vertex -15.4697 -3.3573 18.1657
    endloop
  endfacet
  facet normal 0.141234 -0.494988 -0.857345
    outer loop
      vertex -21.5726 -3.79264 17.4117
      vertex -15.4697 -4.22333 18.6657
      vertex -21.5726 -4.65866 17.9117
    endloop
  endfacet
  facet normal 0.141234 -0.494988 -0.857345
    outer loop
      vertex -15.4697 -4.22333 18.6657
      vertex -21.5726 -3.79264 17.4117
      vertex -15.4697 -3.3573 18.1657
    endloop
  endfacet
  facet normal 0.517133 -0.427953 -0.741236
    outer loop
      vertex -25.7639 -5.05881 15.2186
      vertex -21.5726 -4.65866 17.9117
      vertex -25.7639 -5.92484 15.7186
    endloop
  endfacet
  facet normal 0.517133 -0.427953 -0.741236
    outer loop
      vertex -21.5726 -4.65866 17.9117
      vertex -25.7639 -5.05881 15.2186
      vertex -21.5726 -3.79264 17.4117
    endloop
  endfacet
  facet normal 0.927342 -0.187107 -0.324079
    outer loop
      vertex -25.7639 -5.92484 15.7186
      vertex -27.269 -6.92374 11.9885
      vertex -25.7639 -5.05881 15.2186
    endloop
  endfacet
  facet normal 0.927342 -0.187107 -0.324079
    outer loop
      vertex -27.269 -6.92374 11.9885
      vertex -25.7639 -5.92484 15.7186
      vertex -27.269 -7.78976 12.4885
    endloop
  endfacet
  facet normal 0.849444 0.263839 0.456983
    outer loop
      vertex -27.269 -7.78976 12.4885
      vertex -24.0665 -9.50141 7.52384
      vertex -27.269 -6.92374 11.9885
    endloop
  endfacet
  facet normal 0.849444 0.263839 0.456983
    outer loop
      vertex -24.0665 -9.50141 7.52384
      vertex -27.269 -7.78976 12.4885
      vertex -24.0665 -10.3674 8.02384
    endloop
  endfacet
  facet normal 0.220196 0.487728 0.844769
    outer loop
      vertex -24.0665 -10.3674 8.02384
      vertex -15.2087 -10.5012 5.79222
      vertex -24.0665 -9.50141 7.52384
    endloop
  endfacet
  facet normal 0.220196 0.487728 0.844769
    outer loop
      vertex -15.2087 -10.5012 5.79222
      vertex -24.0665 -10.3674 8.02384
      vertex -15.2087 -11.3672 6.29222
    endloop
  endfacet
  facet normal -0.149323 0.494394 0.856316
    outer loop
      vertex -15.2087 -10.5012 5.79222
      vertex -9.5343 -10.9387 7.03434
      vertex -9.5343 -10.0727 6.53434
    endloop
  endfacet
  facet normal -0.149323 0.494394 0.856316
    outer loop
      vertex -9.5343 -10.9387 7.03434
      vertex -15.2087 -10.5012 5.79222
      vertex -15.2087 -11.3672 6.29222
    endloop
  endfacet
  facet normal -0.510964 0.429801 0.744438
    outer loop
      vertex -9.5343 -10.0727 6.53434
      vertex -5.30182 -9.68079 9.21315
      vertex -5.30182 -8.81476 8.71315
    endloop
  endfacet
  facet normal -0.510964 0.429801 0.744437
    outer loop
      vertex -5.30182 -9.68079 9.21315
      vertex -9.5343 -10.0727 6.53434
      vertex -9.5343 -10.9387 7.03434
    endloop
  endfacet
  facet normal -0.924762 0.190273 0.329563
    outer loop
      vertex -5.30182 -8.81476 8.71315
      vertex -3.75 -7.79526 12.479
      vertex -3.75 -6.92923 11.979
    endloop
  endfacet
  facet normal -0.924762 0.190273 0.329563
    outer loop
      vertex -3.75 -7.79526 12.479
      vertex -5.30182 -8.81476 8.71315
      vertex -5.30182 -9.68079 9.21315
    endloop
  endfacet
  facet normal -0.932652 -0.180388 -0.312441
    outer loop
      vertex -3.75 -6.92923 11.979
      vertex -5.1535 -5.98114 15.6211
      vertex -5.1535 -5.11511 15.1211
    endloop
  endfacet
  facet normal -0.932652 -0.180388 -0.312441
    outer loop
      vertex -5.1535 -5.98114 15.6211
      vertex -3.75 -6.92923 11.979
      vertex -3.75 -7.79526 12.479
    endloop
  endfacet
  facet normal 0.219079 -0.487854 -0.844987
    outer loop
      vertex -15.1593 -9.48218 7.55714
      vertex -8.68835 -9.62173 9.31543
      vertex -15.1593 -10.3482 8.05714
    endloop
  endfacet
  facet normal 0.219079 -0.487854 -0.844987
    outer loop
      vertex -8.68835 -9.62173 9.31543
      vertex -15.1593 -9.48218 7.55714
      vertex -8.68835 -8.75571 8.81543
    endloop
  endfacet
  facet normal -0.202326 -0.489659 -0.848114
    outer loop
      vertex -22.4844 -9.59152 9.36776
      vertex -15.1593 -9.48218 7.55714
      vertex -15.1593 -10.3482 8.05714
    endloop
  endfacet
  facet normal -0.202326 -0.489659 -0.848115
    outer loop
      vertex -15.1593 -9.48218 7.55714
      vertex -22.4844 -9.59152 9.36776
      vertex -22.4844 -8.7255 8.86776
    endloop
  endfacet
  facet normal -0.854788 -0.259489 -0.449448
    outer loop
      vertex -22.4844 -8.7255 8.86776
      vertex -24.679 -7.78427 12.498
      vertex -24.679 -6.91825 11.998
    endloop
  endfacet
  facet normal -0.854788 -0.259489 -0.449448
    outer loop
      vertex -24.679 -7.78427 12.498
      vertex -22.4844 -8.7255 8.86776
      vertex -22.4844 -9.59152 9.36776
    endloop
  endfacet
  facet normal -0.91939 0.196674 0.340649
    outer loop
      vertex -24.679 -6.91825 11.998
      vertex -23.5391 -6.45218 14.8053
      vertex -23.5391 -5.58615 14.3053
    endloop
  endfacet
  facet normal -0.91939 0.196674 0.340649
    outer loop
      vertex -23.5391 -6.45218 14.8053
      vertex -24.679 -6.91825 11.998
      vertex -24.679 -7.78427 12.498
    endloop
  endfacet
  facet normal -0.490261 0.435788 0.754806
    outer loop
      vertex -23.5391 -5.58615 14.3053
      vertex -20.3311 -5.54993 16.368
      vertex -20.3311 -4.6839 15.868
    endloop
  endfacet
  facet normal -0.490261 0.435788 0.754807
    outer loop
      vertex -20.3311 -5.54993 16.368
      vertex -23.5391 -5.58615 14.3053
      vertex -23.5391 -6.45218 14.8053
    endloop
  endfacet
  facet normal -0.125973 0.496017 0.859126
    outer loop
      vertex -20.3311 -4.6839 15.868
      vertex -15.4861 -5.24231 16.9008
      vertex -15.4861 -4.37628 16.4008
    endloop
  endfacet
  facet normal -0.125972 0.496018 0.859126
    outer loop
      vertex -15.4861 -5.24231 16.9008
      vertex -20.3311 -4.6839 15.868
      vertex -20.3311 -5.54993 16.368
    endloop
  endfacet
  facet normal 0.208148 0.489049 0.847057
    outer loop
      vertex -15.4861 -5.24231 16.9008
      vertex -8.71033 -5.09726 15.152
      vertex -15.4861 -4.37628 16.4008
    endloop
  endfacet
  facet normal 0.208148 0.489049 0.847057
    outer loop
      vertex -8.71033 -5.09726 15.152
      vertex -15.4861 -5.24231 16.9008
      vertex -8.71033 -5.96329 15.652
    endloop
  endfacet
  facet normal 0.838458 0.272483 0.471955
    outer loop
      vertex -8.71033 -5.96329 15.652
      vertex -6.32355 -6.93335 11.9718
      vertex -8.71033 -5.09726 15.152
    endloop
  endfacet
  facet normal 0.838458 0.272483 0.471955
    outer loop
      vertex -6.32355 -6.93335 11.9718
      vertex -8.71033 -5.96329 15.652
      vertex -6.32355 -7.79938 12.4718
    endloop
  endfacet
  facet normal 0.838891 -0.27215 -0.471377
    outer loop
      vertex -6.32355 -7.79938 12.4718
      vertex -8.68835 -8.75571 8.81543
      vertex -6.32355 -6.93335 11.9718
    endloop
  endfacet
  facet normal 0.838891 -0.27215 -0.471377
    outer loop
      vertex -8.68835 -8.75571 8.81543
      vertex -6.32355 -7.79938 12.4718
      vertex -8.68835 -9.62173 9.31543
    endloop
  endfacet
  facet normal 2.41909e-07 0.866026 0.5
    outer loop
      vertex -11.6739 5.96106 13.6559
      vertex -3.75 2.76679 19.1885
      vertex -3.75 4.0055 17.043
    endloop
  endfacet
  facet normal -1.15914e-08 0.866025 0.5
    outer loop
      vertex -3.75 2.76679 19.1885
      vertex -11.6739 5.96106 13.6559
      vertex -15.596 5.78116 13.9675
    endloop
  endfacet
  facet normal -1.50451e-07 0.866026 0.5
    outer loop
      vertex -26.478 3.12384 18.5701
      vertex -20.6497 5.76468 13.996
      vertex -26.478 4.35156 16.4436
    endloop
  endfacet
  facet normal 1.5123e-08 0.866025 0.5
    outer loop
      vertex -15.596 5.78116 13.9675
      vertex -20.6497 5.76468 13.996
      vertex -26.478 3.12384 18.5701
    endloop
  endfacet
  facet normal -3.04055e-08 0.866026 0.5
    outer loop
      vertex -13.3768 6.33322 13.0113
      vertex -15.596 5.78116 13.9675
      vertex -11.6739 5.96106 13.6559
    endloop
  endfacet
  facet normal 4.68439e-08 0.866025 0.5
    outer loop
      vertex -15.7663 6.96082 11.9243
      vertex -15.596 5.78116 13.9675
      vertex -13.3768 6.33322 13.0113
    endloop
  endfacet
  facet normal 1.55031e-08 0.866025 0.5
    outer loop
      vertex -15.596 5.78116 13.9675
      vertex -17.8592 6.39228 12.909
      vertex -20.6497 5.76468 13.996
    endloop
  endfacet
  facet normal 2.2235e-09 0.866025 0.5
    outer loop
      vertex -15.7663 6.96082 11.9243
      vertex -13.3768 6.33322 13.0113
      vertex -11.8579 6.6738 12.4214
    endloop
  endfacet
  facet normal 8.3714e-08 0.866025 0.5
    outer loop
      vertex -15.596 5.78116 13.9675
      vertex -15.7663 6.96082 11.9243
      vertex -17.8592 6.39228 12.909
    endloop
  endfacet
  facet normal 4.03126e-08 0.866025 0.5
    outer loop
      vertex -15.7663 6.96082 11.9243
      vertex -20.4465 7.00888 11.841
      vertex -17.8592 6.39228 12.909
    endloop
  endfacet
  facet normal 3.62016e-08 0.866025 0.5
    outer loop
      vertex -26.478 9.69779 7.1837
      vertex -20.4465 7.00888 11.841
      vertex -15.7663 6.96082 11.9243
    endloop
  endfacet
  facet normal 6.36219e-08 0.866025 0.5
    outer loop
      vertex -20.4465 7.00888 11.841
      vertex -26.478 9.69779 7.1837
      vertex -26.478 8.57718 9.12465
    endloop
  endfacet
  facet normal -1.12212e-07 0.866025 0.5
    outer loop
      vertex -3.75 9.91065 6.81502
      vertex -11.8579 6.6738 12.4214
      vertex -3.75 8.63486 9.02475
    endloop
  endfacet
  facet normal -1.1389e-08 0.866025 0.5
    outer loop
      vertex -11.8579 6.6738 12.4214
      vertex -3.75 9.91065 6.81502
      vertex -15.7663 6.96082 11.9243
    endloop
  endfacet
  facet normal -0.400509 -0.458146 0.793533
    outer loop
      vertex -13.3768 6.33322 13.0113
      vertex -11.6739 6.82709 14.1559
      vertex -13.3768 7.19925 13.5113
    endloop
  endfacet
  facet normal -0.400509 -0.458146 0.793533
    outer loop
      vertex -11.6739 6.82709 14.1559
      vertex -13.3768 6.33322 13.0113
      vertex -11.6739 5.96106 13.6559
    endloop
  endfacet
  facet normal -0.409198 0.456223 -0.790201
    outer loop
      vertex -13.3768 7.19925 13.5113
      vertex -11.8579 6.6738 12.4214
      vertex -13.3768 6.33322 13.0113
    endloop
  endfacet
  facet normal -0.409198 0.456223 -0.790201
    outer loop
      vertex -11.8579 6.6738 12.4214
      vertex -13.3768 7.19925 13.5113
      vertex -11.8579 7.53983 12.9214
    endloop
  endfacet
  facet normal -0.435465 0.450103 -0.779601
    outer loop
      vertex -11.8579 7.53983 12.9214
      vertex -3.75 8.63486 9.02475
      vertex -11.8579 6.6738 12.4214
    endloop
  endfacet
  facet normal -0.435465 0.450103 -0.779601
    outer loop
      vertex -3.75 8.63486 9.02475
      vertex -11.8579 7.53983 12.9214
      vertex -3.75 9.50089 9.52475
    endloop
  endfacet
  facet normal -1 0 0
    outer loop
      vertex -3.75 9.91065 6.81502
      vertex -3.75 9.50089 9.52475
      vertex -3.75 10.7767 7.31502
    endloop
  endfacet
  facet normal -1 0 -0
    outer loop
      vertex -3.75 9.50089 9.52475
      vertex -3.75 9.91065 6.81502
      vertex -3.75 8.63486 9.02475
    endloop
  endfacet
  facet normal 0.440718 -0.448823 0.777384
    outer loop
      vertex -15.7663 7.82684 12.4243
      vertex -3.75 9.91065 6.81502
      vertex -3.75 10.7767 7.31502
    endloop
  endfacet
  facet normal 0.440718 -0.448823 0.777384
    outer loop
      vertex -3.75 9.91065 6.81502
      vertex -15.7663 7.82684 12.4243
      vertex -15.7663 6.96082 11.9243
    endloop
  endfacet
  facet normal -0.455051 -0.445233 0.771166
    outer loop
      vertex -26.478 9.69779 7.1837
      vertex -15.7663 7.82684 12.4243
      vertex -26.478 10.5638 7.6837
    endloop
  endfacet
  facet normal -0.455051 -0.445233 0.771166
    outer loop
      vertex -15.7663 7.82684 12.4243
      vertex -26.478 9.69779 7.1837
      vertex -15.7663 6.96082 11.9243
    endloop
  endfacet
  facet normal 1 0 0
    outer loop
      vertex -26.478 9.44321 9.62465
      vertex -26.478 9.69779 7.1837
      vertex -26.478 10.5638 7.6837
    endloop
  endfacet
  facet normal 1 0 0
    outer loop
      vertex -26.478 9.69779 7.1837
      vertex -26.478 9.44321 9.62465
      vertex -26.478 8.57718 9.12465
    endloop
  endfacet
  facet normal 0.461378 0.443602 -0.768341
    outer loop
      vertex -26.478 8.57718 9.12465
      vertex -20.4465 7.87491 12.341
      vertex -20.4465 7.00888 11.841
    endloop
  endfacet
  facet normal 0.461378 0.443602 -0.768341
    outer loop
      vertex -20.4465 7.87491 12.341
      vertex -26.478 8.57718 9.12465
      vertex -26.478 9.44321 9.62465
    endloop
  endfacet
  facet normal 0.430268 0.45135 -0.781762
    outer loop
      vertex -20.4465 7.00888 11.841
      vertex -17.8592 7.2583 13.409
      vertex -17.8592 6.39228 12.909
    endloop
  endfacet
  facet normal 0.430268 0.45135 -0.781762
    outer loop
      vertex -17.8592 7.2583 13.409
      vertex -20.4465 7.00888 11.841
      vertex -20.4465 7.87491 12.341
    endloop
  endfacet
  facet normal 0.410215 -0.455994 0.789805
    outer loop
      vertex -20.6497 6.63071 14.496
      vertex -17.8592 6.39228 12.909
      vertex -17.8592 7.2583 13.409
    endloop
  endfacet
  facet normal 0.410215 -0.455994 0.789805
    outer loop
      vertex -17.8592 6.39228 12.909
      vertex -20.6497 6.63071 14.496
      vertex -20.6497 5.76468 13.996
    endloop
  endfacet
  facet normal 0.436325 -0.449894 0.77924
    outer loop
      vertex -26.478 5.21759 16.9436
      vertex -20.6497 5.76468 13.996
      vertex -20.6497 6.63071 14.496
    endloop
  endfacet
  facet normal 0.436325 -0.449894 0.77924
    outer loop
      vertex -20.6497 5.76468 13.996
      vertex -26.478 5.21759 16.9436
      vertex -26.478 4.35156 16.4436
    endloop
  endfacet
  facet normal 1 0 0
    outer loop
      vertex -26.478 3.98987 19.0701
      vertex -26.478 4.35156 16.4436
      vertex -26.478 5.21759 16.9436
    endloop
  endfacet
  facet normal 1 0 0
    outer loop
      vertex -26.478 4.35156 16.4436
      vertex -26.478 3.98987 19.0701
      vertex -26.478 3.12384 18.5701
    endloop
  endfacet
  facet normal -0.438848 0.449281 -0.778177
    outer loop
      vertex -26.478 3.98987 19.0701
      vertex -15.596 5.78116 13.9675
      vertex -26.478 3.12384 18.5701
    endloop
  endfacet
  facet normal -0.438848 0.449281 -0.778177
    outer loop
      vertex -15.596 5.78116 13.9675
      vertex -26.478 3.98987 19.0701
      vertex -15.596 6.64719 14.4675
    endloop
  endfacet
  facet normal 0.453567 0.445611 -0.771821
    outer loop
      vertex -15.596 5.78116 13.9675
      vertex -3.75 3.63281 19.6885
      vertex -3.75 2.76679 19.1885
    endloop
  endfacet
  facet normal 0.453567 0.445611 -0.771821
    outer loop
      vertex -3.75 3.63281 19.6885
      vertex -15.596 5.78116 13.9675
      vertex -15.596 6.64719 14.4675
    endloop
  endfacet
  facet normal -1 0 0
    outer loop
      vertex -3.75 4.0055 17.043
      vertex -3.75 3.63281 19.6885
      vertex -3.75 4.87152 17.543
    endloop
  endfacet
  facet normal -1 0 -0
    outer loop
      vertex -3.75 3.63281 19.6885
      vertex -3.75 4.0055 17.043
      vertex -3.75 2.76679 19.1885
    endloop
  endfacet
  facet normal -0.442607 -0.448358 0.776578
    outer loop
      vertex -11.6739 5.96106 13.6559
      vertex -3.75 4.87152 17.543
      vertex -11.6739 6.82709 14.1559
    endloop
  endfacet
  facet normal -0.442607 -0.448358 0.776578
    outer loop
      vertex -3.75 4.87152 17.543
      vertex -11.6739 5.96106 13.6559
      vertex -3.75 4.0055 17.043
    endloop
  endfacet
  facet normal 0 0 -1
    outer loop
      vertex -30 -15 5.13064e-07
      vertex -1.92296e-15 15 5.13064e-07
      vertex -1.92296e-15 -15 5.13064e-07
    endloop
  endfacet
  facet normal -0 0 -1
    outer loop
      vertex -1.92296e-15 15 5.13064e-07
      vertex -30 -15 5.13064e-07
      vertex -30 15 5.13064e-07
    endloop
  endfacet
  facet normal -3.3891e-09 0.866025 0.5
    outer loop
      vertex -30 15 5.13064e-07
      vertex -15.7663 7.82684 12.4243
      vertex -3.75 10.7767 7.31502
    endloop
  endfacet
  facet normal 4.71827e-08 0.866025 0.5
    outer loop
      vertex -30 0 25.9808
      vertex -15.596 6.64719 14.4675
      vertex -26.478 3.98987 19.0701
    endloop
  endfacet
  facet normal 0 0.866025 0.5
    outer loop
      vertex 3.84593e-15 0 25.9808
      vertex -3.75 3.63281 19.6885
      vertex -30 0 25.9808
    endloop
  endfacet
  facet normal 7.52413e-07 0.866026 0.5
    outer loop
      vertex 3.84593e-15 0 25.9808
      vertex -3.75 4.87152 17.543
      vertex -3.75 3.63281 19.6885
    endloop
  endfacet
  facet normal -6.74722e-08 0.866025 0.5
    outer loop
      vertex -11.6739 6.82709 14.1559
      vertex -11.8579 7.53983 12.9214
      vertex -13.3768 7.19925 13.5113
    endloop
  endfacet
  facet normal 3.30787e-08 0.866025 0.5
    outer loop
      vertex -3.75 9.50089 9.52475
      vertex -11.6739 6.82709 14.1559
      vertex -3.75 4.87152 17.543
    endloop
  endfacet
  facet normal -1.17108e-07 0.866025 0.5
    outer loop
      vertex -11.6739 6.82709 14.1559
      vertex -3.75 9.50089 9.52475
      vertex -11.8579 7.53983 12.9214
    endloop
  endfacet
  facet normal -3.4683e-07 0.866025 0.5
    outer loop
      vertex 3.84593e-15 0 25.9808
      vertex -3.75 9.50089 9.52475
      vertex -3.75 4.87152 17.543
    endloop
  endfacet
  facet normal -1.66471e-08 0.866025 0.5
    outer loop
      vertex -1.92296e-15 15 5.13064e-07
      vertex -3.75 9.50089 9.52475
      vertex 3.84593e-15 0 25.9808
    endloop
  endfacet
  facet normal -1.39743e-07 0.866025 0.5
    outer loop
      vertex -3.75 9.50089 9.52475
      vertex -1.92296e-15 15 5.13064e-07
      vertex -3.75 10.7767 7.31502
    endloop
  endfacet
  facet normal -1.73356e-08 0.866025 0.5
    outer loop
      vertex -15.596 6.64719 14.4675
      vertex -30 0 25.9808
      vertex -3.75 3.63281 19.6885
    endloop
  endfacet
  facet normal -5.155e-07 0.866026 0.5
    outer loop
      vertex -26.478 5.21759 16.9436
      vertex -30 0 25.9808
      vertex -26.478 3.98987 19.0701
    endloop
  endfacet
  facet normal -2.01673e-08 0.866025 0.5
    outer loop
      vertex -20.4465 7.87491 12.341
      vertex -20.6497 6.63071 14.496
      vertex -17.8592 7.2583 13.409
    endloop
  endfacet
  facet normal 1.57365e-08 0.866025 0.5
    outer loop
      vertex -26.478 9.44321 9.62465
      vertex -20.6497 6.63071 14.496
      vertex -20.4465 7.87491 12.341
    endloop
  endfacet
  facet normal -4.1745e-08 0.866025 0.5
    outer loop
      vertex -20.6497 6.63071 14.496
      vertex -26.478 9.44321 9.62465
      vertex -26.478 5.21759 16.9436
    endloop
  endfacet
  facet normal 1.48689e-07 0.866025 0.5
    outer loop
      vertex -26.478 9.44321 9.62465
      vertex -30 0 25.9808
      vertex -26.478 5.21759 16.9436
    endloop
  endfacet
  facet normal 9.66728e-08 0.866025 0.5
    outer loop
      vertex -30 15 5.13064e-07
      vertex -26.478 9.44321 9.62465
      vertex -26.478 10.5638 7.6837
    endloop
  endfacet
  facet normal -0 0.866025 0.5
    outer loop
      vertex -30 15 5.13064e-07
      vertex -3.75 10.7767 7.31502
      vertex -1.92296e-15 15 5.13064e-07
    endloop
  endfacet
  facet normal 7.62465e-08 0.866025 0.5
    outer loop
      vertex -26.478 9.44321 9.62465
      vertex -30 15 5.13064e-07
      vertex -30 0 25.9808
    endloop
  endfacet
  facet normal -7.8348e-09 0.866025 0.5
    outer loop
      vertex -15.7663 7.82684 12.4243
      vertex -30 15 5.13064e-07
      vertex -26.478 10.5638 7.6837
    endloop
  endfacet
  facet normal 0 -0.866025 0.5
    outer loop
      vertex -30 0 25.9808
      vertex -15.4697 -4.22333 18.6657
      vertex 3.84593e-15 0 25.9808
    endloop
  endfacet
  facet normal -9.31319e-08 -0.866025 0.5
    outer loop
      vertex -30 0 25.9808
      vertex -21.5726 -4.65866 17.9117
      vertex -15.4697 -4.22333 18.6657
    endloop
  endfacet
  facet normal 3.76395e-08 -0.866025 0.5
    outer loop
      vertex -30 0 25.9808
      vertex -25.7639 -5.92484 15.7186
      vertex -21.5726 -4.65866 17.9117
    endloop
  endfacet
  facet normal -1.00237e-07 -0.866025 0.5
    outer loop
      vertex -30 0 25.9808
      vertex -27.269 -7.78976 12.4885
      vertex -25.7639 -5.92484 15.7186
    endloop
  endfacet
  facet normal -1.22131e-08 -0.866025 0.5
    outer loop
      vertex -24.0665 -10.3674 8.02384
      vertex -30 -15 5.13064e-07
      vertex -15.2087 -11.3672 6.29222
    endloop
  endfacet
  facet normal -1.47772e-07 -0.866025 0.5
    outer loop
      vertex -27.269 -7.78976 12.4885
      vertex -30 -15 5.13064e-07
      vertex -24.0665 -10.3674 8.02384
    endloop
  endfacet
  facet normal 1.60824e-07 -0.866025 0.5
    outer loop
      vertex -30 -15 5.13064e-07
      vertex -27.269 -7.78976 12.4885
      vertex -30 0 25.9808
    endloop
  endfacet
  facet normal 5.35147e-08 -0.866025 0.5
    outer loop
      vertex -9.28436 -4.68201 17.8713
      vertex 3.84593e-15 0 25.9808
      vertex -15.4697 -4.22333 18.6657
    endloop
  endfacet
  facet normal -1.86288e-09 -0.866025 0.5
    outer loop
      vertex -5.1535 -5.98114 15.6211
      vertex 3.84593e-15 0 25.9808
      vertex -9.28436 -4.68201 17.8713
    endloop
  endfacet
  facet normal 5.76277e-08 -0.866025 0.5
    outer loop
      vertex -3.75 -7.79526 12.479
      vertex 3.84593e-15 0 25.9808
      vertex -5.1535 -5.98114 15.6211
    endloop
  endfacet
  facet normal 0 -0.866025 0.5
    outer loop
      vertex -1.92296e-15 -15 5.13064e-07
      vertex -15.2087 -11.3672 6.29222
      vertex -30 -15 5.13064e-07
    endloop
  endfacet
  facet normal -3.91474e-08 -0.866025 0.5
    outer loop
      vertex -3.75 -7.79526 12.479
      vertex -1.92296e-15 -15 5.13064e-07
      vertex 3.84593e-15 0 25.9808
    endloop
  endfacet
  facet normal 5.20913e-08 -0.866025 0.5
    outer loop
      vertex -5.30182 -9.68079 9.21315
      vertex -1.92296e-15 -15 5.13064e-07
      vertex -3.75 -7.79526 12.479
    endloop
  endfacet
  facet normal 3.83655e-08 -0.866025 0.5
    outer loop
      vertex -9.5343 -10.9387 7.03434
      vertex -1.92296e-15 -15 5.13064e-07
      vertex -5.30182 -9.68079 9.21315
    endloop
  endfacet
  facet normal 2.73035e-08 -0.866025 0.5
    outer loop
      vertex -15.2087 -11.3672 6.29222
      vertex -1.92296e-15 -15 5.13064e-07
      vertex -9.5343 -10.9387 7.03434
    endloop
  endfacet
  facet normal 3.34293e-08 -0.866025 0.5
    outer loop
      vertex -15.1593 -10.3482 8.05714
      vertex -15.4861 -5.24231 16.9008
      vertex -20.3311 -5.54993 16.368
    endloop
  endfacet
  facet normal -1.65749e-08 -0.866025 0.5
    outer loop
      vertex -22.4844 -9.59152 9.36776
      vertex -20.3311 -5.54993 16.368
      vertex -23.5391 -6.45218 14.8053
    endloop
  endfacet
  facet normal -2.79074e-07 -0.866025 0.5
    outer loop
      vertex -22.4844 -9.59152 9.36776
      vertex -23.5391 -6.45218 14.8053
      vertex -24.679 -7.78427 12.498
    endloop
  endfacet
  facet normal 3.63618e-08 -0.866025 0.5
    outer loop
      vertex -15.4861 -5.24231 16.9008
      vertex -15.1593 -10.3482 8.05714
      vertex -8.71033 -5.96329 15.652
    endloop
  endfacet
  facet normal -3.85757e-08 -0.866025 0.5
    outer loop
      vertex -20.3311 -5.54993 16.368
      vertex -22.4844 -9.59152 9.36776
      vertex -15.1593 -10.3482 8.05714
    endloop
  endfacet
  facet normal 1.32683e-09 -0.866025 0.5
    outer loop
      vertex -8.68835 -9.62173 9.31543
      vertex -8.71033 -5.96329 15.652
      vertex -15.1593 -10.3482 8.05714
    endloop
  endfacet
  facet normal 2.20833e-07 -0.866025 0.5
    outer loop
      vertex -8.71033 -5.96329 15.652
      vertex -8.68835 -9.62173 9.31543
      vertex -6.32355 -7.79938 12.4718
    endloop
  endfacet
  facet normal -1 0 0
    outer loop
      vertex -30 15 5.13064e-07
      vertex -30 3.93923 7.96566
      vertex -30 4 8.66025
    endloop
  endfacet
  facet normal -1 0 0
    outer loop
      vertex -30 15 5.13064e-07
      vertex -30 3.75877 7.29217
      vertex -30 3.93923 7.96566
    endloop
  endfacet
  facet normal -1 0 0
    outer loop
      vertex -30 15 5.13064e-07
      vertex -30 3.4641 6.66025
      vertex -30 3.75877 7.29217
    endloop
  endfacet
  facet normal -1 0 0
    outer loop
      vertex -30 15 5.13064e-07
      vertex -30 3.06418 6.0891
      vertex -30 3.4641 6.66025
    endloop
  endfacet
  facet normal -1 0 0
    outer loop
      vertex -30 15 5.13064e-07
      vertex -30 2.57115 5.59608
      vertex -30 3.06418 6.0891
    endloop
  endfacet
  facet normal -1 0 0
    outer loop
      vertex -30 15 5.13064e-07
      vertex -30 2 5.19615
      vertex -30 2.57115 5.59608
    endloop
  endfacet
  facet normal -1 0 0
    outer loop
      vertex -30 15 5.13064e-07
      vertex -30 1.36808 4.90148
      vertex -30 2 5.19615
    endloop
  endfacet
  facet normal -1 0 0
    outer loop
      vertex -30 15 5.13064e-07
      vertex -30 0.694592 4.72102
      vertex -30 1.36808 4.90148
    endloop
  endfacet
  facet normal -1 0 0
    outer loop
      vertex -30 15 5.13064e-07
      vertex -30 0 4.66025
      vertex -30 0.694592 4.72102
    endloop
  endfacet
  facet normal -1 0 0
    outer loop
      vertex -30 -15 5.13064e-07
      vertex -30 0 4.66025
      vertex -30 15 5.13064e-07
    endloop
  endfacet
  facet normal -1 -0 0
    outer loop
      vertex -30 0 4.66025
      vertex -30 -15 5.13064e-07
      vertex -30 -0.694592 4.72102
    endloop
  endfacet
  facet normal -1 -0 0
    outer loop
      vertex -30 -3.93923 7.96566
      vertex -30 -15 5.13064e-07
      vertex -30 -4 8.66025
    endloop
  endfacet
  facet normal -1 -0 0
    outer loop
      vertex -30 -3.75877 7.29217
      vertex -30 -15 5.13064e-07
      vertex -30 -3.93923 7.96566
    endloop
  endfacet
  facet normal -1 -0 0
    outer loop
      vertex -30 -3.4641 6.66025
      vertex -30 -15 5.13064e-07
      vertex -30 -3.75877 7.29217
    endloop
  endfacet
  facet normal -1 -0 0
    outer loop
      vertex -30 -3.06418 6.0891
      vertex -30 -15 5.13064e-07
      vertex -30 -3.4641 6.66025
    endloop
  endfacet
  facet normal -1 -0 0
    outer loop
      vertex -30 -2.57115 5.59608
      vertex -30 -15 5.13064e-07
      vertex -30 -3.06418 6.0891
    endloop
  endfacet
  facet normal -1 -0 0
    outer loop
      vertex -30 -2 5.19615
      vertex -30 -15 5.13064e-07
      vertex -30 -2.57115 5.59608
    endloop
  endfacet
  facet normal -1 -0 0
    outer loop
      vertex -30 -1.36808 4.90148
      vertex -30 -15 5.13064e-07
      vertex -30 -2 5.19615
    endloop
  endfacet
  facet normal -1 -0 0
    outer loop
      vertex -30 -0.694592 4.72102
      vertex -30 -15 5.13064e-07
      vertex -30 -1.36808 4.90148
    endloop
  endfacet
  facet normal -1 0 0
    outer loop
      vertex -30 3.93923 9.35485
      vertex -30 15 5.13064e-07
      vertex -30 4 8.66025
    endloop
  endfacet
  facet normal -1 0 0
    outer loop
      vertex -30 3.75877 10.0283
      vertex -30 15 5.13064e-07
      vertex -30 3.93923 9.35485
    endloop
  endfacet
  facet normal -1 0 0
    outer loop
      vertex -30 3.4641 10.6603
      vertex -30 15 5.13064e-07
      vertex -30 3.75877 10.0283
    endloop
  endfacet
  facet normal -1 0 0
    outer loop
      vertex -30 0 25.9808
      vertex -30 3.4641 10.6603
      vertex -30 3.06418 11.2314
    endloop
  endfacet
  facet normal -1 0 0
    outer loop
      vertex -30 0 25.9808
      vertex -30 3.06418 11.2314
      vertex -30 2.57115 11.7244
    endloop
  endfacet
  facet normal -1 0 0
    outer loop
      vertex -30 3.4641 10.6603
      vertex -30 0 25.9808
      vertex -30 15 5.13064e-07
    endloop
  endfacet
  facet normal -1 0 0
    outer loop
      vertex -30 2 12.1244
      vertex -30 0 25.9808
      vertex -30 2.57115 11.7244
    endloop
  endfacet
  facet normal -1 0 0
    outer loop
      vertex -30 1.36808 12.419
      vertex -30 0 25.9808
      vertex -30 2 12.1244
    endloop
  endfacet
  facet normal -1 0 0
    outer loop
      vertex -30 0.694592 12.5995
      vertex -30 0 25.9808
      vertex -30 1.36808 12.419
    endloop
  endfacet
  facet normal -1 0 0
    outer loop
      vertex -30 0 12.6603
      vertex -30 0 25.9808
      vertex -30 0.694592 12.5995
    endloop
  endfacet
  facet normal -1 0 0
    outer loop
      vertex -30 -0.694592 12.5995
      vertex -30 0 25.9808
      vertex -30 0 12.6603
    endloop
  endfacet
  facet normal -1 0 0
    outer loop
      vertex -30 -1.36808 12.419
      vertex -30 0 25.9808
      vertex -30 -0.694592 12.5995
    endloop
  endfacet
  facet normal -1 0 0
    outer loop
      vertex -30 -2 12.1244
      vertex -30 0 25.9808
      vertex -30 -1.36808 12.419
    endloop
  endfacet
  facet normal -1 0 0
    outer loop
      vertex -30 -2.57115 11.7244
      vertex -30 0 25.9808
      vertex -30 -2 12.1244
    endloop
  endfacet
  facet normal -1 0 0
    outer loop
      vertex -30 -3.06418 11.2314
      vertex -30 0 25.9808
      vertex -30 -2.57115 11.7244
    endloop
  endfacet
  facet normal -1 0 0
    outer loop
      vertex -30 -3.4641 10.6603
      vertex -30 0 25.9808
      vertex -30 -3.06418 11.2314
    endloop
  endfacet
  facet normal -1 0 0
    outer loop
      vertex -30 -15 5.13064e-07
      vertex -30 -3.4641 10.6603
      vertex -30 -3.75877 10.0283
    endloop
  endfacet
  facet normal -1 0 0
    outer loop
      vertex -30 -15 5.13064e-07
      vertex -30 -3.75877 10.0283
      vertex -30 -3.93923 9.35485
    endloop
  endfacet
  facet normal -1 -0 0
    outer loop
      vertex -30 -3.4641 10.6603
      vertex -30 -15 5.13064e-07
      vertex -30 0 25.9808
    endloop
  endfacet
  facet normal -1 0 0
    outer loop
      vertex -30 -15 5.13064e-07
      vertex -30 -3.93923 9.35485
      vertex -30 -4 8.66025
    endloop
  endfacet
  facet normal 1 -9.55204e-24 -2.22045e-16
    outer loop
      vertex -1.92296e-15 15 5.13064e-07
      vertex 1.54231e-16 3.93923 9.35485
      vertex 0 4 8.66025
    endloop
  endfacet
  facet normal 1 -1.14372e-23 -2.22045e-16
    outer loop
      vertex -1.92296e-15 15 5.13064e-07
      vertex 3.03775e-16 3.75877 10.0283
      vertex 1.54231e-16 3.93923 9.35485
    endloop
  endfacet
  facet normal 1 -1.49027e-23 -2.22045e-16
    outer loop
      vertex -1.92296e-15 15 5.13064e-07
      vertex 4.44089e-16 3.4641 10.6603
      vertex 3.03775e-16 3.75877 10.0283
    endloop
  endfacet
  facet normal 1 5.4254e-24 -2.22045e-16
    outer loop
      vertex 3.84593e-15 0 25.9808
      vertex 4.44089e-16 3.4641 10.6603
      vertex -1.92296e-15 15 5.13064e-07
    endloop
  endfacet
  facet normal 1 2.91541e-23 -2.22045e-16
    outer loop
      vertex 4.44089e-16 3.4641 10.6603
      vertex 3.84593e-15 0 25.9808
      vertex 5.7091e-16 3.06418 11.2314
    endloop
  endfacet
  facet normal 1 1.81219e-23 -2.22045e-16
    outer loop
      vertex 5.7091e-16 3.06418 11.2314
      vertex 3.84593e-15 0 25.9808
      vertex 6.80384e-16 2.57115 11.7244
    endloop
  endfacet
  facet normal 1 1.19039e-23 -2.22045e-16
    outer loop
      vertex 3.84593e-15 0 25.9808
      vertex 7.69185e-16 2 12.1244
      vertex 6.80384e-16 2.57115 11.7244
    endloop
  endfacet
  facet normal 1 7.64052e-24 -2.22045e-16
    outer loop
      vertex 3.84593e-15 0 25.9808
      vertex 8.34615e-16 1.36808 12.419
      vertex 7.69185e-16 2 12.1244
    endloop
  endfacet
  facet normal 1 4.30011e-24 -2.22045e-16
    outer loop
      vertex 3.84593e-15 0 25.9808
      vertex 8.74685e-16 0.694592 12.5995
      vertex 8.34615e-16 1.36808 12.419
    endloop
  endfacet
  facet normal 1 1.39082e-24 -2.22045e-16
    outer loop
      vertex 3.84593e-15 0 25.9808
      vertex 8.88178e-16 0 12.6603
      vertex 8.74685e-16 0.694592 12.5995
    endloop
  endfacet
  facet normal 1 -1.39082e-24 -2.22045e-16
    outer loop
      vertex 3.84593e-15 0 25.9808
      vertex 8.74685e-16 -0.694592 12.5995
      vertex 8.88178e-16 0 12.6603
    endloop
  endfacet
  facet normal 1 -4.30011e-24 -2.22045e-16
    outer loop
      vertex 3.84593e-15 0 25.9808
      vertex 8.34615e-16 -1.36808 12.419
      vertex 8.74685e-16 -0.694592 12.5995
    endloop
  endfacet
  facet normal 1 -7.64052e-24 -2.22045e-16
    outer loop
      vertex 3.84593e-15 0 25.9808
      vertex 7.69185e-16 -2 12.1244
      vertex 8.34615e-16 -1.36808 12.419
    endloop
  endfacet
  facet normal 1 -1.19039e-23 -2.22045e-16
    outer loop
      vertex 3.84593e-15 0 25.9808
      vertex 6.80384e-16 -2.57115 11.7244
      vertex 7.69185e-16 -2 12.1244
    endloop
  endfacet
  facet normal 1 -1.81219e-23 -2.22045e-16
    outer loop
      vertex 3.84593e-15 0 25.9808
      vertex 5.7091e-16 -3.06418 11.2314
      vertex 6.80384e-16 -2.57115 11.7244
    endloop
  endfacet
  facet normal 1 -2.9154e-23 -2.22045e-16
    outer loop
      vertex 3.84593e-15 0 25.9808
      vertex 4.44089e-16 -3.4641 10.6603
      vertex 5.7091e-16 -3.06418 11.2314
    endloop
  endfacet
  facet normal 1 -5.4254e-24 -2.22045e-16
    outer loop
      vertex -1.92296e-15 -15 5.13064e-07
      vertex 4.44089e-16 -3.4641 10.6603
      vertex 3.84593e-15 0 25.9808
    endloop
  endfacet
  facet normal 1 1.49027e-23 -2.22045e-16
    outer loop
      vertex 4.44089e-16 -3.4641 10.6603
      vertex -1.92296e-15 -15 5.13064e-07
      vertex 3.03775e-16 -3.75877 10.0283
    endloop
  endfacet
  facet normal 1 9.55204e-24 -2.22045e-16
    outer loop
      vertex 1.54231e-16 -3.93923 9.35485
      vertex -1.92296e-15 -15 5.13064e-07
      vertex 0 -4 8.66025
    endloop
  endfacet
  facet normal 1 1.14372e-23 -2.22045e-16
    outer loop
      vertex 3.03775e-16 -3.75877 10.0283
      vertex -1.92296e-15 -15 5.13064e-07
      vertex 1.54231e-16 -3.93923 9.35485
    endloop
  endfacet
  facet normal 1 1.03956e-22 -2.22044e-16
    outer loop
      vertex -1.54231e-16 3.93923 7.96566
      vertex -1.92296e-15 15 5.13064e-07
      vertex 0 4 8.66025
    endloop
  endfacet
  facet normal 1 6.09617e-25 -2.22045e-16
    outer loop
      vertex -3.03775e-16 3.75877 7.29217
      vertex -1.92296e-15 15 5.13064e-07
      vertex -1.54231e-16 3.93923 7.96566
    endloop
  endfacet
  facet normal 1 5.49392e-25 -2.22045e-16
    outer loop
      vertex -4.44089e-16 3.4641 6.66025
      vertex -1.92296e-15 15 5.13064e-07
      vertex -3.03775e-16 3.75877 7.29217
    endloop
  endfacet
  facet normal 1 4.9656e-25 -2.22045e-16
    outer loop
      vertex -5.7091e-16 3.06418 6.0891
      vertex -1.92296e-15 15 5.13064e-07
      vertex -4.44089e-16 3.4641 6.66025
    endloop
  endfacet
  facet normal 1 4.46271e-25 -2.22045e-16
    outer loop
      vertex -6.80384e-16 2.57115 5.59608
      vertex -1.92296e-15 15 5.13064e-07
      vertex -5.7091e-16 3.06418 6.0891
    endloop
  endfacet
  facet normal 1 3.9391e-25 -2.22045e-16
    outer loop
      vertex -7.69185e-16 2 5.19615
      vertex -1.92296e-15 15 5.13064e-07
      vertex -6.80384e-16 2.57115 5.59608
    endloop
  endfacet
  facet normal 1 3.33179e-25 -2.22045e-16
    outer loop
      vertex -8.34615e-16 1.36808 4.90148
      vertex -1.92296e-15 15 5.13064e-07
      vertex -7.69185e-16 2 5.19615
    endloop
  endfacet
  facet normal 1 2.5197e-25 -2.22045e-16
    outer loop
      vertex -8.74685e-16 0.694592 4.72102
      vertex -1.92296e-15 15 5.13064e-07
      vertex -8.34615e-16 1.36808 4.90148
    endloop
  endfacet
  facet normal 1 1.17832e-25 -2.22045e-16
    outer loop
      vertex -8.88178e-16 0 4.66025
      vertex -1.92296e-15 15 5.13064e-07
      vertex -8.74685e-16 0.694592 4.72102
    endloop
  endfacet
  facet normal 1 -1.17832e-25 -2.22045e-16
    outer loop
      vertex -1.92296e-15 -15 5.13064e-07
      vertex -8.88178e-16 0 4.66025
      vertex -8.74685e-16 -0.694592 4.72102
    endloop
  endfacet
  facet normal 1 -2.5197e-25 -2.22045e-16
    outer loop
      vertex -1.92296e-15 -15 5.13064e-07
      vertex -8.74685e-16 -0.694592 4.72102
      vertex -8.34615e-16 -1.36808 4.90148
    endloop
  endfacet
  facet normal 1 0 -2.22045e-16
    outer loop
      vertex -8.88178e-16 0 4.66025
      vertex -1.92296e-15 -15 5.13064e-07
      vertex -1.92296e-15 15 5.13064e-07
    endloop
  endfacet
  facet normal 1 -3.33179e-25 -2.22045e-16
    outer loop
      vertex -7.69185e-16 -2 5.19615
      vertex -1.92296e-15 -15 5.13064e-07
      vertex -8.34615e-16 -1.36808 4.90148
    endloop
  endfacet
  facet normal 1 -3.9391e-25 -2.22045e-16
    outer loop
      vertex -6.80384e-16 -2.57115 5.59608
      vertex -1.92296e-15 -15 5.13064e-07
      vertex -7.69185e-16 -2 5.19615
    endloop
  endfacet
  facet normal 1 -4.46271e-25 -2.22045e-16
    outer loop
      vertex -5.7091e-16 -3.06418 6.0891
      vertex -1.92296e-15 -15 5.13064e-07
      vertex -6.80384e-16 -2.57115 5.59608
    endloop
  endfacet
  facet normal 1 -4.9656e-25 -2.22045e-16
    outer loop
      vertex -4.44089e-16 -3.4641 6.66025
      vertex -1.92296e-15 -15 5.13064e-07
      vertex -5.7091e-16 -3.06418 6.0891
    endloop
  endfacet
  facet normal 1 -5.49392e-25 -2.22045e-16
    outer loop
      vertex -3.03775e-16 -3.75877 7.29217
      vertex -1.92296e-15 -15 5.13064e-07
      vertex -4.44089e-16 -3.4641 6.66025
    endloop
  endfacet
  facet normal 1 -6.09617e-25 -2.22045e-16
    outer loop
      vertex -1.54231e-16 -3.93923 7.96566
      vertex -1.92296e-15 -15 5.13064e-07
      vertex -3.03775e-16 -3.75877 7.29217
    endloop
  endfacet
  facet normal 1 -1.03956e-22 -2.22044e-16
    outer loop
      vertex -1.92296e-15 -15 5.13064e-07
      vertex -1.54231e-16 -3.93923 7.96566
      vertex 0 -4 8.66025
    endloop
  endfacet
  facet normal -0.751331 0.0575164 0.657414
    outer loop
      vertex -30 0.694592 12.5995
      vertex -33.5 0 8.66025
      vertex -30 0 12.6603
    endloop
  endfacet
  facet normal -0.751331 -0.0575164 -0.657414
    outer loop
      vertex -30 -0.694592 4.72102
      vertex -33.5 0 8.66025
      vertex -30 0 4.66025
    endloop
  endfacet
  facet normal -0.751331 0.657414 -0.0575164
    outer loop
      vertex -30 3.93923 7.96566
      vertex -33.5 0 8.66025
      vertex -30 4 8.66025
    endloop
  endfacet
  facet normal -0.751331 -0.657414 0.0575164
    outer loop
      vertex -30 -3.93923 9.35485
      vertex -33.5 0 8.66025
      vertex -30 -4 8.66025
    endloop
  endfacet
  facet normal -0.751331 0.466638 -0.466638
    outer loop
      vertex -30 2.57115 5.59608
      vertex -33.5 0 8.66025
      vertex -30 3.06418 6.0891
    endloop
  endfacet
  facet normal -0.751331 0.54058 0.378518
    outer loop
      vertex -30 3.4641 10.6603
      vertex -33.5 0 8.66025
      vertex -30 3.06418 11.2314
    endloop
  endfacet
  facet normal -0.751331 -0.466638 -0.466638
    outer loop
      vertex -30 -3.06418 6.0891
      vertex -33.5 0 8.66025
      vertex -30 -2.57115 5.59608
    endloop
  endfacet
  facet normal -0.751331 -0.466638 0.466638
    outer loop
      vertex -30 -2.57115 11.7244
      vertex -33.5 0 8.66025
      vertex -30 -3.06418 11.2314
    endloop
  endfacet
  facet normal -0.751331 0.598096 -0.278897
    outer loop
      vertex -30 3.4641 6.66025
      vertex -33.5 0 8.66025
      vertex -30 3.75877 7.29217
    endloop
  endfacet
  facet normal -0.751331 0.278897 -0.598096
    outer loop
      vertex -30 1.36808 4.90148
      vertex -33.5 0 8.66025
      vertex -30 2 5.19615
    endloop
  endfacet
  facet normal -0.751331 0.637439 0.170802
    outer loop
      vertex -30 3.93923 9.35485
      vertex -33.5 0 8.66025
      vertex -30 3.75877 10.0283
    endloop
  endfacet
  facet normal -0.751331 0.378517 0.54058
    outer loop
      vertex -30 2.57115 11.7244
      vertex -33.5 0 8.66025
      vertex -30 2 12.1244
    endloop
  endfacet
  facet normal -0.751331 -0.278897 -0.598096
    outer loop
      vertex -30 -2 5.19615
      vertex -33.5 0 8.66025
      vertex -30 -1.36808 4.90148
    endloop
  endfacet
  facet normal -0.751331 -0.598096 -0.278897
    outer loop
      vertex -30 -3.75877 7.29217
      vertex -33.5 0 8.66025
      vertex -30 -3.4641 6.66025
    endloop
  endfacet
  facet normal -0.751331 -0.598096 0.278897
    outer loop
      vertex -30 -3.4641 10.6603
      vertex -33.5 0 8.66025
      vertex -30 -3.75877 10.0283
    endloop
  endfacet
  facet normal -0.751331 -0.170802 0.637439
    outer loop
      vertex -30 -0.694592 12.5995
      vertex -33.5 0 8.66025
      vertex -30 -1.36808 12.419
    endloop
  endfacet
  facet normal -0.751331 0.637439 -0.170802
    outer loop
      vertex -30 3.75877 7.29217
      vertex -33.5 0 8.66025
      vertex -30 3.93923 7.96566
    endloop
  endfacet
  facet normal -0.751331 0.54058 -0.378517
    outer loop
      vertex -30 3.06418 6.0891
      vertex -33.5 0 8.66025
      vertex -30 3.4641 6.66025
    endloop
  endfacet
  facet normal -0.751331 0.378518 -0.54058
    outer loop
      vertex -30 2 5.19615
      vertex -33.5 0 8.66025
      vertex -30 2.57115 5.59608
    endloop
  endfacet
  facet normal -0.751331 0.0575164 -0.657414
    outer loop
      vertex -30 0 4.66025
      vertex -33.5 0 8.66025
      vertex -30 0.694592 4.72102
    endloop
  endfacet
  facet normal -0.751331 0.598096 0.278897
    outer loop
      vertex -30 3.75877 10.0283
      vertex -33.5 0 8.66025
      vertex -30 3.4641 10.6603
    endloop
  endfacet
  facet normal -0.751331 0.657414 0.0575164
    outer loop
      vertex -30 4 8.66025
      vertex -33.5 0 8.66025
      vertex -30 3.93923 9.35485
    endloop
  endfacet
  facet normal -0.751331 0.466638 0.466638
    outer loop
      vertex -30 3.06418 11.2314
      vertex -33.5 0 8.66025
      vertex -30 2.57115 11.7244
    endloop
  endfacet
  facet normal -0.751331 0.278897 0.598096
    outer loop
      vertex -30 2 12.1244
      vertex -33.5 0 8.66025
      vertex -30 1.36808 12.419
    endloop
  endfacet
  facet normal -0.751331 0.170802 0.637439
    outer loop
      vertex -30 1.36808 12.419
      vertex -33.5 0 8.66025
      vertex -30 0.694592 12.5995
    endloop
  endfacet
  facet normal -0.751331 -0.170802 -0.637439
    outer loop
      vertex -30 -1.36808 4.90148
      vertex -33.5 0 8.66025
      vertex -30 -0.694592 4.72102
    endloop
  endfacet
  facet normal -0.751331 -0.378518 -0.54058
    outer loop
      vertex -30 -2.57115 5.59608
      vertex -33.5 0 8.66025
      vertex -30 -2 5.19615
    endloop
  endfacet
  facet normal -0.751331 -0.54058 -0.378518
    outer loop
      vertex -30 -3.4641 6.66025
      vertex -33.5 0 8.66025
      vertex -30 -3.06418 6.0891
    endloop
  endfacet
  facet normal -0.751331 -0.657414 -0.0575164
    outer loop
      vertex -30 -4 8.66025
      vertex -33.5 0 8.66025
      vertex -30 -3.93923 7.96566
    endloop
  endfacet
  facet normal -0.751331 -0.637439 0.170802
    outer loop
      vertex -30 -3.75877 10.0283
      vertex -33.5 0 8.66025
      vertex -30 -3.93923 9.35485
    endloop
  endfacet
  facet normal -0.751331 -0.54058 0.378517
    outer loop
      vertex -30 -3.06418 11.2314
      vertex -33.5 0 8.66025
      vertex -30 -3.4641 10.6603
    endloop
  endfacet
  facet normal -0.751331 -0.378517 0.54058
    outer loop
      vertex -30 -2 12.1244
      vertex -33.5 0 8.66025
      vertex -30 -2.57115 11.7244
    endloop
  endfacet
  facet normal -0.751331 -0.0575164 0.657414
    outer loop
      vertex -30 0 12.6603
      vertex -33.5 0 8.66025
      vertex -30 -0.694592 12.5995
    endloop
  endfacet
  facet normal -0.751331 0.170802 -0.637439
    outer loop
      vertex -30 0.694592 4.72102
      vertex -33.5 0 8.66025
      vertex -30 1.36808 4.90148
    endloop
  endfacet
  facet normal -0.751331 -0.637439 -0.170802
    outer loop
      vertex -30 -3.93923 7.96566
      vertex -33.5 0 8.66025
      vertex -30 -3.75877 7.29217
    endloop
  endfacet
  facet normal -0.751331 -0.278897 0.598096
    outer loop
      vertex -30 -1.36808 12.419
      vertex -33.5 0 8.66025
      vertex -30 -2 12.1244
    endloop
  endfacet
  facet normal 0.751331 0.0575164 -0.657414
    outer loop
      vertex 3.5 0 8.66025
      vertex -8.88178e-16 0 4.66025
      vertex -8.74685e-16 0.694592 4.72102
    endloop
  endfacet
  facet normal 0.751331 -0.170802 0.637439
    outer loop
      vertex 8.74685e-16 -0.694592 12.5995
      vertex 8.34615e-16 -1.36808 12.419
      vertex 3.5 0 8.66025
    endloop
  endfacet
  facet normal 0.751331 0.657414 0.0575164
    outer loop
      vertex 3.5 0 8.66025
      vertex 0 4 8.66025
      vertex 1.54231e-16 3.93923 9.35485
    endloop
  endfacet
  facet normal 0.751331 -0.637439 -0.170802
    outer loop
      vertex -1.54231e-16 -3.93923 7.96566
      vertex -3.03775e-16 -3.75877 7.29217
      vertex 3.5 0 8.66025
    endloop
  endfacet
  facet normal 0.751331 0.466638 0.466638
    outer loop
      vertex 3.5 0 8.66025
      vertex 5.7091e-16 3.06418 11.2314
      vertex 6.80384e-16 2.57115 11.7244
    endloop
  endfacet
  facet normal 0.751331 0.54058 -0.378518
    outer loop
      vertex 3.5 0 8.66025
      vertex -5.7091e-16 3.06418 6.0891
      vertex -4.44089e-16 3.4641 6.66025
    endloop
  endfacet
  facet normal 0.751331 -0.54058 0.378518
    outer loop
      vertex 5.7091e-16 -3.06418 11.2314
      vertex 4.44089e-16 -3.4641 10.6603
      vertex 3.5 0 8.66025
    endloop
  endfacet
  facet normal 0.751331 -0.278897 -0.598096
    outer loop
      vertex -7.69185e-16 -2 5.19615
      vertex -8.34615e-16 -1.36808 4.90148
      vertex 3.5 0 8.66025
    endloop
  endfacet
  facet normal 0.751331 0.598096 0.278897
    outer loop
      vertex 3.5 0 8.66025
      vertex 3.03775e-16 3.75877 10.0283
      vertex 4.44089e-16 3.4641 10.6603
    endloop
  endfacet
  facet normal 0.751331 0.170802 0.637439
    outer loop
      vertex 3.5 0 8.66025
      vertex 8.34615e-16 1.36808 12.419
      vertex 8.74685e-16 0.694592 12.5995
    endloop
  endfacet
  facet normal 0.751331 0.637439 -0.170802
    outer loop
      vertex 3.5 0 8.66025
      vertex -3.03775e-16 3.75877 7.29217
      vertex -1.54231e-16 3.93923 7.96566
    endloop
  endfacet
  facet normal 0.751331 0.378517 -0.54058
    outer loop
      vertex 3.5 0 8.66025
      vertex -7.69185e-16 2 5.19615
      vertex -6.80384e-16 2.57115 5.59608
    endloop
  endfacet
  facet normal 0.751331 0.637439 0.170802
    outer loop
      vertex 3.5 0 8.66025
      vertex 1.54231e-16 3.93923 9.35485
      vertex 3.03775e-16 3.75877 10.0283
    endloop
  endfacet
  facet normal 0.751331 0.54058 0.378517
    outer loop
      vertex 3.5 0 8.66025
      vertex 4.44089e-16 3.4641 10.6603
      vertex 5.7091e-16 3.06418 11.2314
    endloop
  endfacet
  facet normal 0.751331 0.378518 0.54058
    outer loop
      vertex 3.5 0 8.66025
      vertex 6.80384e-16 2.57115 11.7244
      vertex 7.69185e-16 2 12.1244
    endloop
  endfacet
  facet normal 0.751331 0.0575164 0.657414
    outer loop
      vertex 3.5 0 8.66025
      vertex 8.74685e-16 0.694592 12.5995
      vertex 8.88178e-16 0 12.6603
    endloop
  endfacet
  facet normal 0.751331 0.598096 -0.278897
    outer loop
      vertex 3.5 0 8.66025
      vertex -4.44089e-16 3.4641 6.66025
      vertex -3.03775e-16 3.75877 7.29217
    endloop
  endfacet
  facet normal 0.751331 0.657414 -0.0575164
    outer loop
      vertex 3.5 0 8.66025
      vertex -1.54231e-16 3.93923 7.96566
      vertex 0 4 8.66025
    endloop
  endfacet
  facet normal 0.751331 0.466638 -0.466638
    outer loop
      vertex 3.5 0 8.66025
      vertex -6.80384e-16 2.57115 5.59608
      vertex -5.7091e-16 3.06418 6.0891
    endloop
  endfacet
  facet normal 0.751331 0.278897 -0.598096
    outer loop
      vertex 3.5 0 8.66025
      vertex -8.34615e-16 1.36808 4.90148
      vertex -7.69185e-16 2 5.19615
    endloop
  endfacet
  facet normal 0.751331 0.170802 -0.637439
    outer loop
      vertex 3.5 0 8.66025
      vertex -8.74685e-16 0.694592 4.72102
      vertex -8.34615e-16 1.36808 4.90148
    endloop
  endfacet
  facet normal 0.751331 -0.0575164 0.657414
    outer loop
      vertex 8.88178e-16 0 12.6603
      vertex 8.74685e-16 -0.694592 12.5995
      vertex 3.5 0 8.66025
    endloop
  endfacet
  facet normal 0.751331 -0.378518 0.54058
    outer loop
      vertex 7.69185e-16 -2 12.1244
      vertex 6.80384e-16 -2.57115 11.7244
      vertex 3.5 0 8.66025
    endloop
  endfacet
  facet normal 0.751331 -0.278897 0.598096
    outer loop
      vertex 8.34615e-16 -1.36808 12.419
      vertex 7.69185e-16 -2 12.1244
      vertex 3.5 0 8.66025
    endloop
  endfacet
  facet normal 0.751331 -0.466638 0.466638
    outer loop
      vertex 6.80384e-16 -2.57115 11.7244
      vertex 5.7091e-16 -3.06418 11.2314
      vertex 3.5 0 8.66025
    endloop
  endfacet
  facet normal 0.751331 -0.657414 0.0575164
    outer loop
      vertex 1.54231e-16 -3.93923 9.35485
      vertex 0 -4 8.66025
      vertex 3.5 0 8.66025
    endloop
  endfacet
  facet normal 0.751331 -0.657414 -0.0575164
    outer loop
      vertex 0 -4 8.66025
      vertex -1.54231e-16 -3.93923 7.96566
      vertex 3.5 0 8.66025
    endloop
  endfacet
  facet normal 0.751331 -0.54058 -0.378517
    outer loop
      vertex -4.44089e-16 -3.4641 6.66025
      vertex -5.7091e-16 -3.06418 6.0891
      vertex 3.5 0 8.66025
    endloop
  endfacet
  facet normal 0.751331 -0.598096 -0.278897
    outer loop
      vertex -3.03775e-16 -3.75877 7.29217
      vertex -4.44089e-16 -3.4641 6.66025
      vertex 3.5 0 8.66025
    endloop
  endfacet
  facet normal 0.751331 -0.466638 -0.466638
    outer loop
      vertex -5.7091e-16 -3.06418 6.0891
      vertex -6.80384e-16 -2.57115 5.59608
      vertex 3.5 0 8.66025
    endloop
  endfacet
  facet normal 0.751331 -0.0575164 -0.657414
    outer loop
      vertex -8.74685e-16 -0.694592 4.72102
      vertex -8.88178e-16 0 4.66025
      vertex 3.5 0 8.66025
    endloop
  endfacet
  facet normal 0.751331 -0.170802 -0.637439
    outer loop
      vertex -8.34615e-16 -1.36808 4.90148
      vertex -8.74685e-16 -0.694592 4.72102
      vertex 3.5 0 8.66025
    endloop
  endfacet
  facet normal 0.751331 0.278897 0.598096
    outer loop
      vertex 3.5 0 8.66025
      vertex 7.69185e-16 2 12.1244
      vertex 8.34615e-16 1.36808 12.419
    endloop
  endfacet
  facet normal 0.751331 -0.637439 0.170802
    outer loop
      vertex 3.03775e-16 -3.75877 10.0283
      vertex 1.54231e-16 -3.93923 9.35485
      vertex 3.5 0 8.66025
    endloop
  endfacet
  facet normal 0.751331 -0.598096 0.278897
    outer loop
      vertex 4.44089e-16 -3.4641 10.6603
      vertex 3.03775e-16 -3.75877 10.0283
      vertex 3.5 0 8.66025
    endloop
  endfacet
  facet normal 0.751331 -0.378517 -0.54058
    outer loop
      vertex -6.80384e-16 -2.57115 5.59608
      vertex -7.69185e-16 -2 5.19615
      vertex 3.5 0 8.66025
    endloop
  endfacet
  facet normal -1 0 0
    outer loop
      vertex 1 3.20183 9.22482
      vertex 1 18.3205 0
      vertex 1 3.25122 8.66025
    endloop
  endfacet
  facet normal -1 0 0
    outer loop
      vertex 1 18.3205 0
      vertex 1 3.20183 8.09569
      vertex 1 3.25122 8.66025
    endloop
  endfacet
  facet normal -1 0 0
    outer loop
      vertex 1 18.3205 0
      vertex 1 3.05515 7.54827
      vertex 1 3.20183 8.09569
    endloop
  endfacet
  facet normal -1 0 0
    outer loop
      vertex 1 18.3205 0
      vertex 1 2.81564 7.03464
      vertex 1 3.05515 7.54827
    endloop
  endfacet
  facet normal -1 0 0
    outer loop
      vertex 1 18.3205 0
      vertex 1 2.49058 6.57041
      vertex 1 2.81564 7.03464
    endloop
  endfacet
  facet normal -1 0 0
    outer loop
      vertex 1 18.3205 0
      vertex 1 2.08984 6.16967
      vertex 1 2.49058 6.57041
    endloop
  endfacet
  facet normal -1 0 0
    outer loop
      vertex 1 18.3205 0
      vertex 1 1.62561 5.84461
      vertex 1 2.08984 6.16967
    endloop
  endfacet
  facet normal -1 0 0
    outer loop
      vertex 1 18.3205 0
      vertex 1 1.11198 5.60511
      vertex 1 1.62561 5.84461
    endloop
  endfacet
  facet normal -1 0 0
    outer loop
      vertex 1 18.3205 0
      vertex 1 0.564568 5.45843
      vertex 1 1.11198 5.60511
    endloop
  endfacet
  facet normal -1 0 0
    outer loop
      vertex 1 18.3205 0
      vertex 1 0 5.40903
      vertex 1 0.564568 5.45843
    endloop
  endfacet
  facet normal -1 0 0
    outer loop
      vertex 1 -18.3205 0
      vertex 1 0 5.40903
      vertex 1 18.3205 0
    endloop
  endfacet
  facet normal -1 -0 0
    outer loop
      vertex 1 0 5.40903
      vertex 1 -18.3205 0
      vertex 1 -0.564568 5.45843
    endloop
  endfacet
  facet normal -1 -0 0
    outer loop
      vertex 1 -3.20183 8.09569
      vertex 1 -18.3205 0
      vertex 1 -3.25122 8.66025
    endloop
  endfacet
  facet normal -1 -0 0
    outer loop
      vertex 1 -3.05515 7.54827
      vertex 1 -18.3205 0
      vertex 1 -3.20183 8.09569
    endloop
  endfacet
  facet normal -1 -0 0
    outer loop
      vertex 1 -2.81564 7.03464
      vertex 1 -18.3205 0
      vertex 1 -3.05515 7.54827
    endloop
  endfacet
  facet normal -1 -0 0
    outer loop
      vertex 1 -2.49058 6.57041
      vertex 1 -18.3205 0
      vertex 1 -2.81564 7.03464
    endloop
  endfacet
  facet normal -1 -0 0
    outer loop
      vertex 1 -2.08984 6.16967
      vertex 1 -18.3205 0
      vertex 1 -2.49058 6.57041
    endloop
  endfacet
  facet normal -1 -0 0
    outer loop
      vertex 1 -1.62561 5.84461
      vertex 1 -18.3205 0
      vertex 1 -2.08984 6.16967
    endloop
  endfacet
  facet normal -1 -0 0
    outer loop
      vertex 1 -1.11198 5.60511
      vertex 1 -18.3205 0
      vertex 1 -1.62561 5.84461
    endloop
  endfacet
  facet normal -1 -0 0
    outer loop
      vertex 1 -0.564568 5.45843
      vertex 1 -18.3205 0
      vertex 1 -1.11198 5.60511
    endloop
  endfacet
  facet normal -1 0 0
    outer loop
      vertex 1 3.05515 9.77224
      vertex 1 18.3205 0
      vertex 1 3.20183 9.22482
    endloop
  endfacet
  facet normal -1 0 0
    outer loop
      vertex 1 18.3205 0
      vertex 1 3.05515 9.77224
      vertex 1 18.3205 30
    endloop
  endfacet
  facet normal -1 0 0
    outer loop
      vertex 1 2.81564 10.2859
      vertex 1 18.3205 30
      vertex 1 3.05515 9.77224
    endloop
  endfacet
  facet normal -1 0 0
    outer loop
      vertex 1 2.49058 10.7501
      vertex 1 18.3205 30
      vertex 1 2.81564 10.2859
    endloop
  endfacet
  facet normal -1 0 0
    outer loop
      vertex 1 2.08984 11.1508
      vertex 1 18.3205 30
      vertex 1 2.49058 10.7501
    endloop
  endfacet
  facet normal -1 0 0
    outer loop
      vertex 1 1.62561 11.4759
      vertex 1 18.3205 30
      vertex 1 2.08984 11.1508
    endloop
  endfacet
  facet normal -1 0 0
    outer loop
      vertex 1 1.11198 11.7154
      vertex 1 18.3205 30
      vertex 1 1.62561 11.4759
    endloop
  endfacet
  facet normal -1 0 0
    outer loop
      vertex 1 0.564568 11.8621
      vertex 1 18.3205 30
      vertex 1 1.11198 11.7154
    endloop
  endfacet
  facet normal -1 0 0
    outer loop
      vertex 1 0 11.9115
      vertex 1 18.3205 30
      vertex 1 0.564568 11.8621
    endloop
  endfacet
  facet normal -1 0 0
    outer loop
      vertex 1 -18.3205 30
      vertex 1 0 11.9115
      vertex 1 -0.564568 11.8621
    endloop
  endfacet
  facet normal -1 0 0
    outer loop
      vertex 1 -18.3205 30
      vertex 1 -0.564568 11.8621
      vertex 1 -1.11198 11.7154
    endloop
  endfacet
  facet normal -1 0 0
    outer loop
      vertex 1 -18.3205 30
      vertex 1 -1.11198 11.7154
      vertex 1 -1.62561 11.4759
    endloop
  endfacet
  facet normal -1 0 0
    outer loop
      vertex 1 -18.3205 30
      vertex 1 -1.62561 11.4759
      vertex 1 -2.08984 11.1508
    endloop
  endfacet
  facet normal -1 0 0
    outer loop
      vertex 1 -18.3205 0
      vertex 1 -3.20183 9.22482
      vertex 1 -3.25122 8.66025
    endloop
  endfacet
  facet normal -1 0 0
    outer loop
      vertex 1 -18.3205 0
      vertex 1 -3.05515 9.77224
      vertex 1 -3.20183 9.22482
    endloop
  endfacet
  facet normal -1 0 0
    outer loop
      vertex 1 -18.3205 30
      vertex 1 -3.05515 9.77224
      vertex 1 -18.3205 0
    endloop
  endfacet
  facet normal -1 0 0
    outer loop
      vertex 1 -3.05515 9.77224
      vertex 1 -18.3205 30
      vertex 1 -2.81564 10.2859
    endloop
  endfacet
  facet normal -1 0 0
    outer loop
      vertex 1 -2.81564 10.2859
      vertex 1 -18.3205 30
      vertex 1 -2.49058 10.7501
    endloop
  endfacet
  facet normal -1 0 0
    outer loop
      vertex 1 -2.49058 10.7501
      vertex 1 -18.3205 30
      vertex 1 -2.08984 11.1508
    endloop
  endfacet
  facet normal -1 0 0
    outer loop
      vertex 1 0 11.9115
      vertex 1 -18.3205 30
      vertex 1 18.3205 30
    endloop
  endfacet
  facet normal 0 0 1
    outer loop
      vertex 5 22.3205 30
      vertex 1 18.3205 30
      vertex 5 -22.3205 30
    endloop
  endfacet
  facet normal 0 0 1
    outer loop
      vertex 5 22.3205 30
      vertex -31 18.3205 30
      vertex 1 18.3205 30
    endloop
  endfacet
  facet normal 0 0 1
    outer loop
      vertex -31 18.3205 30
      vertex -35 22.3205 30
      vertex -31 -18.3205 30
    endloop
  endfacet
  facet normal -0 0 1
    outer loop
      vertex -35 22.3205 30
      vertex -31 18.3205 30
      vertex 5 22.3205 30
    endloop
  endfacet
  facet normal -0 0 1
    outer loop
      vertex 1 -18.3205 30
      vertex 5 -22.3205 30
      vertex 1 18.3205 30
    endloop
  endfacet
  facet normal -0 0 1
    outer loop
      vertex -31 -18.3205 30
      vertex 5 -22.3205 30
      vertex 1 -18.3205 30
    endloop
  endfacet
  facet normal 0 0 1
    outer loop
      vertex -31 -18.3205 30
      vertex -35 -22.3205 30
      vertex 5 -22.3205 30
    endloop
  endfacet
  facet normal 0 0 1
    outer loop
      vertex -35 -22.3205 30
      vertex -31 -18.3205 30
      vertex -35 22.3205 30
    endloop
  endfacet
  facet normal 1 -0 0
    outer loop
      vertex 5 -22.3205 30
      vertex 5 22.3205 0
      vertex 5 22.3205 30
    endloop
  endfacet
  facet normal 1 0 0
    outer loop
      vertex 5 22.3205 0
      vertex 5 -22.3205 30
      vertex 5 -22.3205 0
    endloop
  endfacet
  facet normal 0 1 -0
    outer loop
      vertex 5 22.3205 0
      vertex -35 22.3205 30
      vertex 5 22.3205 30
    endloop
  endfacet
  facet normal 0 1 0
    outer loop
      vertex -35 22.3205 30
      vertex 5 22.3205 0
      vertex -35 22.3205 0
    endloop
  endfacet
  facet normal 0 0 -1
    outer loop
      vertex 5 -22.3205 0
      vertex 1 -18.3205 0
      vertex 5 22.3205 0
    endloop
  endfacet
  facet normal 0 0 -1
    outer loop
      vertex 5 -22.3205 0
      vertex -31 -18.3205 0
      vertex 1 -18.3205 0
    endloop
  endfacet
  facet normal -0 0 -1
    outer loop
      vertex -31 -18.3205 0
      vertex -35 -22.3205 0
      vertex -31 18.3205 0
    endloop
  endfacet
  facet normal 0 0 -1
    outer loop
      vertex -35 -22.3205 0
      vertex -31 -18.3205 0
      vertex 5 -22.3205 0
    endloop
  endfacet
  facet normal 0 0 -1
    outer loop
      vertex 1 18.3205 0
      vertex 5 22.3205 0
      vertex 1 -18.3205 0
    endloop
  endfacet
  facet normal 0 0 -1
    outer loop
      vertex -31 18.3205 0
      vertex 5 22.3205 0
      vertex 1 18.3205 0
    endloop
  endfacet
  facet normal 0 0 -1
    outer loop
      vertex -31 18.3205 0
      vertex -35 22.3205 0
      vertex 5 22.3205 0
    endloop
  endfacet
  facet normal 0 0 -1
    outer loop
      vertex -35 22.3205 0
      vertex -31 18.3205 0
      vertex -35 -22.3205 0
    endloop
  endfacet
  facet normal 0 -1 0
    outer loop
      vertex -35 -22.3205 0
      vertex 5 -22.3205 30
      vertex -35 -22.3205 30
    endloop
  endfacet
  facet normal 0 -1 -0
    outer loop
      vertex 5 -22.3205 30
      vertex -35 -22.3205 0
      vertex 5 -22.3205 0
    endloop
  endfacet
  facet normal -0.722422 -0.0602639 0.688821
    outer loop
      vertex 4.1 0 8.66025
      vertex 1 0.564568 5.45843
      vertex 1 0 5.40903
    endloop
  endfacet
  facet normal -0.722422 0.0602644 -0.688821
    outer loop
      vertex 1 0 11.9115
      vertex 4.1 0 8.66025
      vertex 1 -0.564568 11.8621
    endloop
  endfacet
  facet normal -0.722422 -0.688821 -0.0602641
    outer loop
      vertex 1 3.25122 8.66025
      vertex 4.1 0 8.66025
      vertex 1 3.20183 9.22482
    endloop
  endfacet
  facet normal -0.722422 0.688821 0.0602641
    outer loop
      vertex 4.1 0 8.66025
      vertex 1 -3.20183 8.09569
      vertex 1 -3.25122 8.66025
    endloop
  endfacet
  facet normal -0.722422 -0.488931 -0.488931
    outer loop
      vertex 1 2.49058 10.7501
      vertex 4.1 0 8.66025
      vertex 1 2.08984 11.1508
    endloop
  endfacet
  facet normal -0.722422 -0.566405 0.3966
    outer loop
      vertex 4.1 0 8.66025
      vertex 1 2.81564 7.03464
      vertex 1 2.49058 6.57041
    endloop
  endfacet
  facet normal -0.722422 0.566405 -0.3966
    outer loop
      vertex 1 -2.49058 10.7501
      vertex 4.1 0 8.66025
      vertex 1 -2.81564 10.2859
    endloop
  endfacet
  facet normal -0.722422 0.488931 0.48893
    outer loop
      vertex 4.1 0 8.66025
      vertex 1 -2.08984 6.16967
      vertex 1 -2.49058 6.57041
    endloop
  endfacet
  facet normal -0.722422 -0.626668 -0.292221
    outer loop
      vertex 1 3.05515 9.77224
      vertex 4.1 0 8.66025
      vertex 1 2.81564 10.2859
    endloop
  endfacet
  facet normal -0.722422 -0.29222 -0.626669
    outer loop
      vertex 1 1.62561 11.4759
      vertex 4.1 0 8.66025
      vertex 1 1.11198 11.7154
    endloop
  endfacet
  facet normal -0.722422 -0.667892 0.17896
    outer loop
      vertex 4.1 0 8.66025
      vertex 1 3.20183 8.09569
      vertex 1 3.05515 7.54827
    endloop
  endfacet
  facet normal -0.722422 -0.3966 0.566405
    outer loop
      vertex 4.1 0 8.66025
      vertex 1 2.08984 6.16967
      vertex 1 1.62561 5.84461
    endloop
  endfacet
  facet normal -0.722422 0.3966 -0.566405
    outer loop
      vertex 1 -1.62561 11.4759
      vertex 4.1 0 8.66025
      vertex 1 -2.08984 11.1508
    endloop
  endfacet
  facet normal -0.722422 0.667892 -0.178961
    outer loop
      vertex 1 -3.05515 9.77224
      vertex 4.1 0 8.66025
      vertex 1 -3.20183 9.22482
    endloop
  endfacet
  facet normal -0.722422 0.626668 0.292221
    outer loop
      vertex 4.1 0 8.66025
      vertex 1 -2.81564 7.03464
      vertex 1 -3.05515 7.54827
    endloop
  endfacet
  facet normal -0.722422 0.29222 0.626669
    outer loop
      vertex 4.1 0 8.66025
      vertex 1 -1.11198 5.60511
      vertex 1 -1.62561 5.84461
    endloop
  endfacet
  facet normal -0.722422 -0.667892 -0.178961
    outer loop
      vertex 1 3.20183 9.22482
      vertex 4.1 0 8.66025
      vertex 1 3.05515 9.77224
    endloop
  endfacet
  facet normal -0.722422 -0.566405 -0.3966
    outer loop
      vertex 1 2.81564 10.2859
      vertex 4.1 0 8.66025
      vertex 1 2.49058 10.7501
    endloop
  endfacet
  facet normal -0.722422 -0.3966 -0.566405
    outer loop
      vertex 1 2.08984 11.1508
      vertex 4.1 0 8.66025
      vertex 1 1.62561 11.4759
    endloop
  endfacet
  facet normal -0.722422 -0.0602644 -0.688821
    outer loop
      vertex 1 0.564568 11.8621
      vertex 4.1 0 8.66025
      vertex 1 0 11.9115
    endloop
  endfacet
  facet normal -0.722422 -0.626668 0.292221
    outer loop
      vertex 4.1 0 8.66025
      vertex 1 3.05515 7.54827
      vertex 1 2.81564 7.03464
    endloop
  endfacet
  facet normal -0.722422 -0.688821 0.0602641
    outer loop
      vertex 4.1 0 8.66025
      vertex 1 3.25122 8.66025
      vertex 1 3.20183 8.09569
    endloop
  endfacet
  facet normal -0.722422 -0.488931 0.48893
    outer loop
      vertex 4.1 0 8.66025
      vertex 1 2.49058 6.57041
      vertex 1 2.08984 6.16967
    endloop
  endfacet
  facet normal -0.722422 -0.29222 0.626669
    outer loop
      vertex 4.1 0 8.66025
      vertex 1 1.62561 5.84461
      vertex 1 1.11198 5.60511
    endloop
  endfacet
  facet normal -0.722422 -0.178961 0.667891
    outer loop
      vertex 4.1 0 8.66025
      vertex 1 1.11198 5.60511
      vertex 1 0.564568 5.45843
    endloop
  endfacet
  facet normal -0.722422 0.178962 -0.667891
    outer loop
      vertex 1 -0.564568 11.8621
      vertex 4.1 0 8.66025
      vertex 1 -1.11198 11.7154
    endloop
  endfacet
  facet normal -0.722422 0.488931 -0.488931
    outer loop
      vertex 1 -2.08984 11.1508
      vertex 4.1 0 8.66025
      vertex 1 -2.49058 10.7501
    endloop
  endfacet
  facet normal -0.722422 0.626668 -0.292221
    outer loop
      vertex 1 -2.81564 10.2859
      vertex 4.1 0 8.66025
      vertex 1 -3.05515 9.77224
    endloop
  endfacet
  facet normal -0.722422 0.688821 -0.0602641
    outer loop
      vertex 1 -3.20183 9.22482
      vertex 4.1 0 8.66025
      vertex 1 -3.25122 8.66025
    endloop
  endfacet
  facet normal -0.722422 0.667892 0.17896
    outer loop
      vertex 4.1 0 8.66025
      vertex 1 -3.05515 7.54827
      vertex 1 -3.20183 8.09569
    endloop
  endfacet
  facet normal -0.722422 0.566405 0.3966
    outer loop
      vertex 4.1 0 8.66025
      vertex 1 -2.49058 6.57041
      vertex 1 -2.81564 7.03464
    endloop
  endfacet
  facet normal -0.722422 0.3966 0.566405
    outer loop
      vertex 4.1 0 8.66025
      vertex 1 -1.62561 5.84461
      vertex 1 -2.08984 6.16967
    endloop
  endfacet
  facet normal -0.722422 0.0602639 0.688821
    outer loop
      vertex 4.1 0 8.66025
      vertex 1 0 5.40903
      vertex 1 -0.564568 5.45843
    endloop
  endfacet
  facet normal -0.722422 -0.178962 -0.667891
    outer loop
      vertex 1 1.11198 11.7154
      vertex 4.1 0 8.66025
      vertex 1 0.564568 11.8621
    endloop
  endfacet
  facet normal -0.722422 0.29222 -0.626669
    outer loop
      vertex 1 -1.11198 11.7154
      vertex 4.1 0 8.66025
      vertex 1 -1.62561 11.4759
    endloop
  endfacet
  facet normal -0.722422 0.178961 0.667891
    outer loop
      vertex 4.1 0 8.66025
      vertex 1 -0.564568 5.45843
      vertex 1 -1.11198 5.60511
    endloop
  endfacet
  facet normal -1 0 0
    outer loop
      vertex -35 -22.3205 0
      vertex -35 22.3205 30
      vertex -35 22.3205 0
    endloop
  endfacet
  facet normal -1 -0 0
    outer loop
      vertex -35 22.3205 30
      vertex -35 -22.3205 0
      vertex -35 -22.3205 30
    endloop
  endfacet
  facet normal 1 -0 0
    outer loop
      vertex -31 3.05515 9.77224
      vertex -31 18.3205 0
      vertex -31 18.3205 30
    endloop
  endfacet
  facet normal 1 0 0
    outer loop
      vertex -31 18.3205 0
      vertex -31 3.20183 9.22482
      vertex -31 3.25122 8.66025
    endloop
  endfacet
  facet normal 1 0 0
    outer loop
      vertex -31 18.3205 0
      vertex -31 3.05515 9.77224
      vertex -31 3.20183 9.22482
    endloop
  endfacet
  facet normal 1 0 0
    outer loop
      vertex -31 18.3205 30
      vertex -31 2.81564 10.2859
      vertex -31 3.05515 9.77224
    endloop
  endfacet
  facet normal 1 0 0
    outer loop
      vertex -31 18.3205 30
      vertex -31 2.49058 10.7501
      vertex -31 2.81564 10.2859
    endloop
  endfacet
  facet normal 1 0 0
    outer loop
      vertex -31 18.3205 30
      vertex -31 2.08984 11.1508
      vertex -31 2.49058 10.7501
    endloop
  endfacet
  facet normal 1 0 0
    outer loop
      vertex -31 18.3205 30
      vertex -31 1.62561 11.4759
      vertex -31 2.08984 11.1508
    endloop
  endfacet
  facet normal 1 0 0
    outer loop
      vertex -31 18.3205 30
      vertex -31 1.11198 11.7154
      vertex -31 1.62561 11.4759
    endloop
  endfacet
  facet normal 1 0 0
    outer loop
      vertex -31 18.3205 30
      vertex -31 0.564568 11.8621
      vertex -31 1.11198 11.7154
    endloop
  endfacet
  facet normal 1 0 0
    outer loop
      vertex -31 18.3205 30
      vertex -31 0 11.9115
      vertex -31 0.564568 11.8621
    endloop
  endfacet
  facet normal 1 -0 0
    outer loop
      vertex -31 -18.3205 30
      vertex -31 0 11.9115
      vertex -31 18.3205 30
    endloop
  endfacet
  facet normal 1 0 0
    outer loop
      vertex -31 0 11.9115
      vertex -31 -18.3205 30
      vertex -31 -0.564568 11.8621
    endloop
  endfacet
  facet normal 1 0 0
    outer loop
      vertex -31 -0.564568 11.8621
      vertex -31 -18.3205 30
      vertex -31 -1.11198 11.7154
    endloop
  endfacet
  facet normal 1 0 0
    outer loop
      vertex -31 -1.11198 11.7154
      vertex -31 -18.3205 30
      vertex -31 -1.62561 11.4759
    endloop
  endfacet
  facet normal 1 0 0
    outer loop
      vertex -31 -3.05515 9.77224
      vertex -31 -18.3205 0
      vertex -31 -3.20183 9.22482
    endloop
  endfacet
  facet normal 1 0 0
    outer loop
      vertex -31 -18.3205 0
      vertex -31 -3.05515 9.77224
      vertex -31 -18.3205 30
    endloop
  endfacet
  facet normal 1 0 0
    outer loop
      vertex -31 -2.81564 10.2859
      vertex -31 -18.3205 30
      vertex -31 -3.05515 9.77224
    endloop
  endfacet
  facet normal 1 0 0
    outer loop
      vertex -31 -2.49058 10.7501
      vertex -31 -18.3205 30
      vertex -31 -2.81564 10.2859
    endloop
  endfacet
  facet normal 1 0 0
    outer loop
      vertex -31 -2.08984 11.1508
      vertex -31 -18.3205 30
      vertex -31 -2.49058 10.7501
    endloop
  endfacet
  facet normal 1 0 0
    outer loop
      vertex -31 -1.62561 11.4759
      vertex -31 -18.3205 30
      vertex -31 -2.08984 11.1508
    endloop
  endfacet
  facet normal 1 -0 0
    outer loop
      vertex -31 3.20183 8.09569
      vertex -31 18.3205 0
      vertex -31 3.25122 8.66025
    endloop
  endfacet
  facet normal 1 -0 0
    outer loop
      vertex -31 3.05515 7.54827
      vertex -31 18.3205 0
      vertex -31 3.20183 8.09569
    endloop
  endfacet
  facet normal 1 -0 0
    outer loop
      vertex -31 2.81564 7.03464
      vertex -31 18.3205 0
      vertex -31 3.05515 7.54827
    endloop
  endfacet
  facet normal 1 -0 0
    outer loop
      vertex -31 2.49058 6.57041
      vertex -31 18.3205 0
      vertex -31 2.81564 7.03464
    endloop
  endfacet
  facet normal 1 -0 0
    outer loop
      vertex -31 2.08984 6.16967
      vertex -31 18.3205 0
      vertex -31 2.49058 6.57041
    endloop
  endfacet
  facet normal 1 -0 0
    outer loop
      vertex -31 1.62561 5.84461
      vertex -31 18.3205 0
      vertex -31 2.08984 6.16967
    endloop
  endfacet
  facet normal 1 -0 0
    outer loop
      vertex -31 1.11198 5.60511
      vertex -31 18.3205 0
      vertex -31 1.62561 5.84461
    endloop
  endfacet
  facet normal 1 -0 0
    outer loop
      vertex -31 0.564568 5.45843
      vertex -31 18.3205 0
      vertex -31 1.11198 5.60511
    endloop
  endfacet
  facet normal 1 -0 0
    outer loop
      vertex -31 0 5.40903
      vertex -31 18.3205 0
      vertex -31 0.564568 5.45843
    endloop
  endfacet
  facet normal 1 0 0
    outer loop
      vertex -31 -18.3205 0
      vertex -31 0 5.40903
      vertex -31 -0.564568 5.45843
    endloop
  endfacet
  facet normal 1 0 0
    outer loop
      vertex -31 -18.3205 0
      vertex -31 -0.564568 5.45843
      vertex -31 -1.11198 5.60511
    endloop
  endfacet
  facet normal 1 0 0
    outer loop
      vertex -31 -3.20183 9.22482
      vertex -31 -18.3205 0
      vertex -31 -3.25122 8.66025
    endloop
  endfacet
  facet normal 1 0 0
    outer loop
      vertex -31 -3.25122 8.66025
      vertex -31 -18.3205 0
      vertex -31 -3.20183 8.09569
    endloop
  endfacet
  facet normal 1 0 0
    outer loop
      vertex -31 -3.20183 8.09569
      vertex -31 -18.3205 0
      vertex -31 -3.05515 7.54827
    endloop
  endfacet
  facet normal 1 0 0
    outer loop
      vertex -31 0 5.40903
      vertex -31 -18.3205 0
      vertex -31 18.3205 0
    endloop
  endfacet
  facet normal 1 0 0
    outer loop
      vertex -31 -1.62561 5.84461
      vertex -31 -18.3205 0
      vertex -31 -1.11198 5.60511
    endloop
  endfacet
  facet normal 1 0 0
    outer loop
      vertex -31 -2.08984 6.16967
      vertex -31 -18.3205 0
      vertex -31 -1.62561 5.84461
    endloop
  endfacet
  facet normal 1 0 0
    outer loop
      vertex -31 -2.49058 6.57041
      vertex -31 -18.3205 0
      vertex -31 -2.08984 6.16967
    endloop
  endfacet
  facet normal 1 0 0
    outer loop
      vertex -31 -2.81564 7.03464
      vertex -31 -18.3205 0
      vertex -31 -2.49058 6.57041
    endloop
  endfacet
  facet normal 1 0 0
    outer loop
      vertex -31 -3.05515 7.54827
      vertex -31 -18.3205 0
      vertex -31 -2.81564 7.03464
    endloop
  endfacet
  facet normal 0.722422 -0.0602644 -0.688821
    outer loop
      vertex -31 0.564568 11.8621
      vertex -31 0 11.9115
      vertex -34.1 0 8.66025
    endloop
  endfacet
  facet normal 0.722422 0.0602639 0.688821
    outer loop
      vertex -31 -0.564568 5.45843
      vertex -31 0 5.40903
      vertex -34.1 0 8.66025
    endloop
  endfacet
  facet normal 0.722422 -0.688821 0.0602641
    outer loop
      vertex -31 3.20183 8.09569
      vertex -31 3.25122 8.66025
      vertex -34.1 0 8.66025
    endloop
  endfacet
  facet normal 0.722422 0.688821 -0.0602641
    outer loop
      vertex -31 -3.20183 9.22482
      vertex -31 -3.25122 8.66025
      vertex -34.1 0 8.66025
    endloop
  endfacet
  facet normal 0.722422 -0.488931 0.48893
    outer loop
      vertex -31 2.08984 6.16967
      vertex -31 2.49058 6.57041
      vertex -34.1 0 8.66025
    endloop
  endfacet
  facet normal 0.722422 -0.566405 -0.3966
    outer loop
      vertex -31 2.81564 10.2859
      vertex -31 2.49058 10.7501
      vertex -34.1 0 8.66025
    endloop
  endfacet
  facet normal 0.722422 0.566405 0.3966
    outer loop
      vertex -31 -2.81564 7.03464
      vertex -31 -2.49058 6.57041
      vertex -34.1 0 8.66025
    endloop
  endfacet
  facet normal 0.722422 0.48893 -0.48893
    outer loop
      vertex -31 -2.08984 11.1508
      vertex -31 -2.49058 10.7501
      vertex -34.1 0 8.66025
    endloop
  endfacet
  facet normal 0.722422 -0.626668 0.292221
    outer loop
      vertex -31 2.81564 7.03464
      vertex -31 3.05515 7.54827
      vertex -34.1 0 8.66025
    endloop
  endfacet
  facet normal 0.722422 -0.29222 0.626669
    outer loop
      vertex -31 1.11198 5.60511
      vertex -31 1.62561 5.84461
      vertex -34.1 0 8.66025
    endloop
  endfacet
  facet normal 0.722422 -0.667892 -0.178961
    outer loop
      vertex -31 3.20183 9.22482
      vertex -31 3.05515 9.77224
      vertex -34.1 0 8.66025
    endloop
  endfacet
  facet normal 0.722422 -0.3966 -0.566405
    outer loop
      vertex -31 2.08984 11.1508
      vertex -31 1.62561 11.4759
      vertex -34.1 0 8.66025
    endloop
  endfacet
  facet normal 0.722422 0.3966 0.566405
    outer loop
      vertex -31 -2.08984 6.16967
      vertex -31 -1.62561 5.84461
      vertex -34.1 0 8.66025
    endloop
  endfacet
  facet normal 0.722422 0.667892 0.17896
    outer loop
      vertex -31 -3.20183 8.09569
      vertex -31 -3.05515 7.54827
      vertex -34.1 0 8.66025
    endloop
  endfacet
  facet normal 0.722422 0.626668 -0.292221
    outer loop
      vertex -31 -2.81564 10.2859
      vertex -31 -3.05515 9.77224
      vertex -34.1 0 8.66025
    endloop
  endfacet
  facet normal 0.722422 0.29222 -0.626669
    outer loop
      vertex -31 -1.11198 11.7154
      vertex -31 -1.62561 11.4759
      vertex -34.1 0 8.66025
    endloop
  endfacet
  facet normal 0.722422 -0.667892 0.17896
    outer loop
      vertex -31 3.05515 7.54827
      vertex -31 3.20183 8.09569
      vertex -34.1 0 8.66025
    endloop
  endfacet
  facet normal 0.722422 -0.566405 0.3966
    outer loop
      vertex -31 2.49058 6.57041
      vertex -31 2.81564 7.03464
      vertex -34.1 0 8.66025
    endloop
  endfacet
  facet normal 0.722422 -0.3966 0.566405
    outer loop
      vertex -31 1.62561 5.84461
      vertex -31 2.08984 6.16967
      vertex -34.1 0 8.66025
    endloop
  endfacet
  facet normal 0.722422 -0.0602639 0.688821
    outer loop
      vertex -31 0 5.40903
      vertex -31 0.564568 5.45843
      vertex -34.1 0 8.66025
    endloop
  endfacet
  facet normal 0.722422 -0.626668 -0.292221
    outer loop
      vertex -31 3.05515 9.77224
      vertex -31 2.81564 10.2859
      vertex -34.1 0 8.66025
    endloop
  endfacet
  facet normal 0.722422 -0.688821 -0.0602641
    outer loop
      vertex -31 3.25122 8.66025
      vertex -31 3.20183 9.22482
      vertex -34.1 0 8.66025
    endloop
  endfacet
  facet normal 0.722422 -0.48893 -0.48893
    outer loop
      vertex -31 2.49058 10.7501
      vertex -31 2.08984 11.1508
      vertex -34.1 0 8.66025
    endloop
  endfacet
  facet normal 0.722422 -0.29222 -0.626669
    outer loop
      vertex -31 1.62561 11.4759
      vertex -31 1.11198 11.7154
      vertex -34.1 0 8.66025
    endloop
  endfacet
  facet normal 0.722422 -0.178962 -0.667891
    outer loop
      vertex -31 1.11198 11.7154
      vertex -31 0.564568 11.8621
      vertex -34.1 0 8.66025
    endloop
  endfacet
  facet normal 0.722422 0.178961 0.667891
    outer loop
      vertex -31 -1.11198 5.60511
      vertex -31 -0.564568 5.45843
      vertex -34.1 0 8.66025
    endloop
  endfacet
  facet normal 0.722422 0.488931 0.48893
    outer loop
      vertex -31 -2.49058 6.57041
      vertex -31 -2.08984 6.16967
      vertex -34.1 0 8.66025
    endloop
  endfacet
  facet normal 0.722422 0.626668 0.292221
    outer loop
      vertex -31 -3.05515 7.54827
      vertex -31 -2.81564 7.03464
      vertex -34.1 0 8.66025
    endloop
  endfacet
  facet normal 0.722422 0.688821 0.0602641
    outer loop
      vertex -31 -3.25122 8.66025
      vertex -31 -3.20183 8.09569
      vertex -34.1 0 8.66025
    endloop
  endfacet
  facet normal 0.722422 0.667892 -0.178961
    outer loop
      vertex -31 -3.05515 9.77224
      vertex -31 -3.20183 9.22482
      vertex -34.1 0 8.66025
    endloop
  endfacet
  facet normal 0.722422 0.566405 -0.3966
    outer loop
      vertex -31 -2.49058 10.7501
      vertex -31 -2.81564 10.2859
      vertex -34.1 0 8.66025
    endloop
  endfacet
  facet normal 0.722422 0.3966 -0.566405
    outer loop
      vertex -31 -1.62561 11.4759
      vertex -31 -2.08984 11.1508
      vertex -34.1 0 8.66025
    endloop
  endfacet
  facet normal 0.722422 0.0602644 -0.688821
    outer loop
      vertex -31 0 11.9115
      vertex -31 -0.564568 11.8621
      vertex -34.1 0 8.66025
    endloop
  endfacet
  facet normal 0.722422 -0.178961 0.667891
    outer loop
      vertex -31 0.564568 5.45843
      vertex -31 1.11198 5.60511
      vertex -34.1 0 8.66025
    endloop
  endfacet
  facet normal 0.722422 0.29222 0.626669
    outer loop
      vertex -31 -1.62561 5.84461
      vertex -31 -1.11198 5.60511
      vertex -34.1 0 8.66025
    endloop
  endfacet
  facet normal 0.722422 0.178962 -0.667891
    outer loop
      vertex -31 -0.564568 11.8621
      vertex -31 -1.11198 11.7154
      vertex -34.1 0 8.66025
    endloop
  endfacet
  facet normal 0 -1 0
    outer loop
      vertex -31 18.3205 0
      vertex 1 18.3205 30
      vertex -31 18.3205 30
    endloop
  endfacet
  facet normal 0 -1 -0
    outer loop
      vertex 1 18.3205 30
      vertex -31 18.3205 0
      vertex 1 18.3205 0
    endloop
  endfacet
  facet normal 0 1 -0
    outer loop
      vertex 1 -18.3205 0
      vertex -31 -18.3205 30
      vertex 1 -18.3205 30
    endloop
  endfacet
  facet normal 0 1 0
    outer loop
      vertex -31 -18.3205 30
      vertex 1 -18.3205 0
      vertex -31 -18.3205 0
    endloop
  endfacet
endsolid OpenSCAD_Model
