solid OpenSCAD_Model
  facet normal 1 -0 0
    outer loop
      vertex 31 27.9233 8.5
      vertex 31 28 -8.5
      vertex 31 28 8.5
    endloop
  endfacet
  facet normal 1 0 0
    outer loop
      vertex 31 28 -8.5
      vertex 31 27.9233 8.5
      vertex 31 27.9233 -8.5
    endloop
  endfacet
  facet normal 1 -0 0
    outer loop
      vertex 31 -28 8.5
      vertex 31 -27.9233 -8.5
      vertex 31 -27.9233 8.5
    endloop
  endfacet
  facet normal 1 0 0
    outer loop
      vertex 31 -27.9233 -8.5
      vertex 31 -28 8.5
      vertex 31 -28 -8.5
    endloop
  endfacet
  facet normal -0 0 1
    outer loop
      vertex -44.75 -16.25 8.5
      vertex -31 -27.9233 8.5
      vertex 28.75 -16.25 8.5
    endloop
  endfacet
  facet normal -0 -0 1
    outer loop
      vertex -38 -26.1244 8.5
      vertex -31 -27.9233 8.5
      vertex -44.75 -16.25 8.5
    endloop
  endfacet
  facet normal 0 0 1
    outer loop
      vertex -31 -27.9233 8.5
      vertex -35.3262 -27.3148 8.5
      vertex -32.4634 -27.9233 8.5
    endloop
  endfacet
  facet normal 0 0 1
    outer loop
      vertex -31 -27.9233 8.5
      vertex -38 -26.1244 8.5
      vertex -35.3262 -27.3148 8.5
    endloop
  endfacet
  facet normal 0 0 1
    outer loop
      vertex -38 -26.1244 8.5
      vertex -44.75 -16.25 8.5
      vertex -40.3678 -24.404 8.5
    endloop
  endfacet
  facet normal 0 0 1
    outer loop
      vertex -40.3678 -24.404 8.5
      vertex -44.75 -16.25 8.5
      vertex -42.3262 -22.229 8.5
    endloop
  endfacet
  facet normal 0 0 1
    outer loop
      vertex -42.3262 -22.229 8.5
      vertex -44.75 -16.25 8.5
      vertex -43.7896 -19.6943 8.5
    endloop
  endfacet
  facet normal 0 0 1
    outer loop
      vertex -43.7896 -19.6943 8.5
      vertex -44.75 -16.25 8.5
      vertex -44.6941 -16.9108 8.5
    endloop
  endfacet
  facet normal 0 0 1
    outer loop
      vertex -44.75 -16.25 8.5
      vertex -45 -14 8.5
      vertex -44.6941 -16.9108 8.5
    endloop
  endfacet
  facet normal 0 0 1
    outer loop
      vertex -44.75 -1.75 8.5
      vertex -45 -14 8.5
      vertex -44.75 -16.25 8.5
    endloop
  endfacet
  facet normal 0 0 1
    outer loop
      vertex 31 28 8.5
      vertex 29.26 26.5 8.5
      vertex 31 27.9233 8.5
    endloop
  endfacet
  facet normal 0 0 1
    outer loop
      vertex 28.75 -16.25 8.5
      vertex 29.26 26.5 8.5
      vertex 28.75 26.25 8.5
    endloop
  endfacet
  facet normal 0 0 1
    outer loop
      vertex 31 28 8.5
      vertex 28.75 26.25 8.5
      vertex 29.26 26.5 8.5
    endloop
  endfacet
  facet normal 0 0 1
    outer loop
      vertex 31 28 8.5
      vertex -26.75 26.25 8.5
      vertex 28.75 26.25 8.5
    endloop
  endfacet
  facet normal -0 0 1
    outer loop
      vertex -31 28 8.5
      vertex -26.75 26.25 8.5
      vertex 31 28 8.5
    endloop
  endfacet
  facet normal -0 0 1
    outer loop
      vertex -31 27.9233 8.5
      vertex -26.75 26.25 8.5
      vertex -31 28 8.5
    endloop
  endfacet
  facet normal -0 0 1
    outer loop
      vertex -32.4634 27.9233 8.5
      vertex -26.75 26.25 8.5
      vertex -31 27.9233 8.5
    endloop
  endfacet
  facet normal 0 0 1
    outer loop
      vertex -26.75 26.25 8.5
      vertex -32.4634 27.9233 8.5
      vertex -35.3262 27.3148 8.5
    endloop
  endfacet
  facet normal 0 0 1
    outer loop
      vertex -26.75 26.25 8.5
      vertex -35.3262 27.3148 8.5
      vertex -38 26.1244 8.5
    endloop
  endfacet
  facet normal 0 0 1
    outer loop
      vertex -40.3678 24.404 8.5
      vertex -26.75 26.25 8.5
      vertex -38 26.1244 8.5
    endloop
  endfacet
  facet normal 0 0 1
    outer loop
      vertex -42.3262 22.229 8.5
      vertex -26.75 26.25 8.5
      vertex -40.3678 24.404 8.5
    endloop
  endfacet
  facet normal 0 0 1
    outer loop
      vertex -43.7896 19.6943 8.5
      vertex -26.75 26.25 8.5
      vertex -42.3262 22.229 8.5
    endloop
  endfacet
  facet normal 0 0 1
    outer loop
      vertex -44.6941 16.9108 8.5
      vertex -26.75 26.25 8.5
      vertex -43.7896 19.6943 8.5
    endloop
  endfacet
  facet normal 0 0 1
    outer loop
      vertex -26.75 26.25 8.5
      vertex -44.6941 16.9108 8.5
      vertex -45 14 8.5
    endloop
  endfacet
  facet normal 0 0 1
    outer loop
      vertex -26.75 26.25 8.5
      vertex -45 14 8.5
      vertex -26.75 -1.75 8.5
    endloop
  endfacet
  facet normal 0 0 1
    outer loop
      vertex -45 -14 8.5
      vertex -44.75 -1.75 8.5
      vertex -45 14 8.5
    endloop
  endfacet
  facet normal 0 0 1
    outer loop
      vertex -26.75 -1.75 8.5
      vertex -45 14 8.5
      vertex -44.75 -1.75 8.5
    endloop
  endfacet
  facet normal 0 0 1
    outer loop
      vertex 29.26 26.5 8.5
      vertex 35.3262 27.3148 8.5
      vertex 32.4634 27.9233 8.5
    endloop
  endfacet
  facet normal 0 0 1
    outer loop
      vertex 29.26 26.5 8.5
      vertex 32.4634 27.9233 8.5
      vertex 31 27.9233 8.5
    endloop
  endfacet
  facet normal 0 0 1
    outer loop
      vertex 35.3262 27.3148 8.5
      vertex 29.26 26.5 8.5
      vertex 37.1563 26.5 8.5
    endloop
  endfacet
  facet normal -0 0 1
    outer loop
      vertex 29.26 -26.5 8.5
      vertex 35.3262 -27.3148 8.5
      vertex 37.1563 -26.5 8.5
    endloop
  endfacet
  facet normal 0 0 1
    outer loop
      vertex 35.3262 -27.3148 8.5
      vertex 29.26 -26.5 8.5
      vertex 32.4634 -27.9233 8.5
    endloop
  endfacet
  facet normal 0 0 1
    outer loop
      vertex 32.4634 -27.9233 8.5
      vertex 29.26 -26.5 8.5
      vertex 31 -27.9233 8.5
    endloop
  endfacet
  facet normal 0 0 1
    outer loop
      vertex 29.26 -26.5 8.5
      vertex 31 -28 8.5
      vertex 31 -27.9233 8.5
    endloop
  endfacet
  facet normal 0 0 1
    outer loop
      vertex 29.26 26.5 8.5
      vertex 28.75 -16.25 8.5
      vertex 29.26 -26.5 8.5
    endloop
  endfacet
  facet normal 0 0 1
    outer loop
      vertex -31 -27.9233 8.5
      vertex 29.26 -26.5 8.5
      vertex 28.75 -16.25 8.5
    endloop
  endfacet
  facet normal 0 0 1
    outer loop
      vertex -31 -28 8.5
      vertex 29.26 -26.5 8.5
      vertex -31 -27.9233 8.5
    endloop
  endfacet
  facet normal 0 0 1
    outer loop
      vertex 29.26 -26.5 8.5
      vertex -31 -28 8.5
      vertex 31 -28 8.5
    endloop
  endfacet
  facet normal 0 0 1
    outer loop
      vertex 40.26 24.4824 8.5
      vertex 45 14 8.5
      vertex 44.6941 16.9108 8.5
    endloop
  endfacet
  facet normal 0 0 1
    outer loop
      vertex 45 14 8.5
      vertex 40.26 24.4824 8.5
      vertex 45 -14 8.5
    endloop
  endfacet
  facet normal 0 0 1
    outer loop
      vertex 40.26 24.4824 8.5
      vertex 44.6941 16.9108 8.5
      vertex 43.7896 19.6943 8.5
    endloop
  endfacet
  facet normal 0 0 1
    outer loop
      vertex 40.26 -24.4824 8.5
      vertex 45 -14 8.5
      vertex 40.26 24.4824 8.5
    endloop
  endfacet
  facet normal 0 0 1
    outer loop
      vertex 40.26 24.4824 8.5
      vertex 43.7896 19.6943 8.5
      vertex 42.3262 22.229 8.5
    endloop
  endfacet
  facet normal 0 0 1
    outer loop
      vertex 45 -14 8.5
      vertex 40.26 -24.4824 8.5
      vertex 44.6941 -16.9108 8.5
    endloop
  endfacet
  facet normal 0 0 1
    outer loop
      vertex 40.26 24.4824 8.5
      vertex 42.3262 22.229 8.5
      vertex 40.3678 24.404 8.5
    endloop
  endfacet
  facet normal 0 0 1
    outer loop
      vertex 44.6941 -16.9108 8.5
      vertex 40.26 -24.4824 8.5
      vertex 43.7896 -19.6943 8.5
    endloop
  endfacet
  facet normal 0 0 1
    outer loop
      vertex 43.7896 -19.6943 8.5
      vertex 40.26 -24.4824 8.5
      vertex 42.3262 -22.229 8.5
    endloop
  endfacet
  facet normal 0 0 1
    outer loop
      vertex 42.3262 -22.229 8.5
      vertex 40.26 -24.4824 8.5
      vertex 40.3678 -24.404 8.5
    endloop
  endfacet
  facet normal 0 0 -1
    outer loop
      vertex -35.3262 -27.3148 -8.5
      vertex -31 -27.9233 -8.5
      vertex -32.4634 -27.9233 -8.5
    endloop
  endfacet
  facet normal 0 0 -1
    outer loop
      vertex -31 -27.9233 -8.5
      vertex -45 -14 -8.5
      vertex -31 27.9233 -8.5
    endloop
  endfacet
  facet normal 0 0 -1
    outer loop
      vertex -38 -26.1244 -8.5
      vertex -31 -27.9233 -8.5
      vertex -35.3262 -27.3148 -8.5
    endloop
  endfacet
  facet normal 0 0 -1
    outer loop
      vertex -45 14 -8.5
      vertex -31 27.9233 -8.5
      vertex -45 -14 -8.5
    endloop
  endfacet
  facet normal 0 0 -1
    outer loop
      vertex -31 -27.9233 -8.5
      vertex -38 -26.1244 -8.5
      vertex -45 -14 -8.5
    endloop
  endfacet
  facet normal 0 -0 -1
    outer loop
      vertex -38 26.1244 -8.5
      vertex -31 27.9233 -8.5
      vertex -45 14 -8.5
    endloop
  endfacet
  facet normal 0 0 -1
    outer loop
      vertex -45 -14 -8.5
      vertex -38 -26.1244 -8.5
      vertex -40.3678 -24.404 -8.5
    endloop
  endfacet
  facet normal -0 0 -1
    outer loop
      vertex -31 27.9233 -8.5
      vertex -35.3262 27.3148 -8.5
      vertex -32.4634 27.9233 -8.5
    endloop
  endfacet
  facet normal 0 0 -1
    outer loop
      vertex -45 -14 -8.5
      vertex -40.3678 -24.404 -8.5
      vertex -42.3262 -22.229 -8.5
    endloop
  endfacet
  facet normal 0 0 -1
    outer loop
      vertex -31 27.9233 -8.5
      vertex -38 26.1244 -8.5
      vertex -35.3262 27.3148 -8.5
    endloop
  endfacet
  facet normal 0 0 -1
    outer loop
      vertex -45 -14 -8.5
      vertex -42.3262 -22.229 -8.5
      vertex -43.7896 -19.6943 -8.5
    endloop
  endfacet
  facet normal 0 0 -1
    outer loop
      vertex -38 26.1244 -8.5
      vertex -45 14 -8.5
      vertex -40.3678 24.404 -8.5
    endloop
  endfacet
  facet normal 0 0 -1
    outer loop
      vertex -45 -14 -8.5
      vertex -43.7896 -19.6943 -8.5
      vertex -44.6941 -16.9108 -8.5
    endloop
  endfacet
  facet normal 0 0 -1
    outer loop
      vertex -40.3678 24.404 -8.5
      vertex -45 14 -8.5
      vertex -42.3262 22.229 -8.5
    endloop
  endfacet
  facet normal 0 0 -1
    outer loop
      vertex -42.3262 22.229 -8.5
      vertex -45 14 -8.5
      vertex -43.7896 19.6943 -8.5
    endloop
  endfacet
  facet normal 0 0 -1
    outer loop
      vertex -43.7896 19.6943 -8.5
      vertex -45 14 -8.5
      vertex -44.6941 16.9108 -8.5
    endloop
  endfacet
  facet normal 0 0 -1
    outer loop
      vertex -31 -27.9233 -8.5
      vertex 31 -27.9233 -8.5
      vertex 31 -28 -8.5
    endloop
  endfacet
  facet normal 0 0 -1
    outer loop
      vertex 31 -27.9233 -8.5
      vertex -31 -27.9233 -8.5
      vertex 31 27.9233 -8.5
    endloop
  endfacet
  facet normal 0 0 -1
    outer loop
      vertex -31 -27.9233 -8.5
      vertex 31 -28 -8.5
      vertex -31 -28 -8.5
    endloop
  endfacet
  facet normal 0 0 -1
    outer loop
      vertex -31 27.9233 -8.5
      vertex 31 27.9233 -8.5
      vertex -31 -27.9233 -8.5
    endloop
  endfacet
  facet normal 0 0 -1
    outer loop
      vertex 31 27.9233 -8.5
      vertex -31 27.9233 -8.5
      vertex 31 28 -8.5
    endloop
  endfacet
  facet normal -0 0 -1
    outer loop
      vertex 31 28 -8.5
      vertex -31 27.9233 -8.5
      vertex -31 28 -8.5
    endloop
  endfacet
  facet normal 0 0 -1
    outer loop
      vertex 31 -27.9233 -8.5
      vertex 45 -14 -8.5
      vertex 44.6941 -16.9108 -8.5
    endloop
  endfacet
  facet normal -0 0 -1
    outer loop
      vertex 45 -14 -8.5
      vertex 31 -27.9233 -8.5
      vertex 45 14 -8.5
    endloop
  endfacet
  facet normal 0 0 -1
    outer loop
      vertex 31 -27.9233 -8.5
      vertex 44.6941 -16.9108 -8.5
      vertex 43.7896 -19.6943 -8.5
    endloop
  endfacet
  facet normal 0 0 -1
    outer loop
      vertex 31 27.9233 -8.5
      vertex 45 14 -8.5
      vertex 31 -27.9233 -8.5
    endloop
  endfacet
  facet normal 0 0 -1
    outer loop
      vertex 31 -27.9233 -8.5
      vertex 43.7896 -19.6943 -8.5
      vertex 42.3262 -22.229 -8.5
    endloop
  endfacet
  facet normal 0 0 -1
    outer loop
      vertex 45 14 -8.5
      vertex 31 27.9233 -8.5
      vertex 44.6941 16.9108 -8.5
    endloop
  endfacet
  facet normal 0 0 -1
    outer loop
      vertex 31 -27.9233 -8.5
      vertex 42.3262 -22.229 -8.5
      vertex 40.3678 -24.404 -8.5
    endloop
  endfacet
  facet normal 0 0 -1
    outer loop
      vertex 44.6941 16.9108 -8.5
      vertex 31 27.9233 -8.5
      vertex 43.7896 19.6943 -8.5
    endloop
  endfacet
  facet normal 0 0 -1
    outer loop
      vertex 31 -27.9233 -8.5
      vertex 40.3678 -24.404 -8.5
      vertex 38 -26.1244 -8.5
    endloop
  endfacet
  facet normal 0 0 -1
    outer loop
      vertex 43.7896 19.6943 -8.5
      vertex 31 27.9233 -8.5
      vertex 42.3262 22.229 -8.5
    endloop
  endfacet
  facet normal 0 0 -1
    outer loop
      vertex 31 -27.9233 -8.5
      vertex 38 -26.1244 -8.5
      vertex 35.3262 -27.3148 -8.5
    endloop
  endfacet
  facet normal 0 0 -1
    outer loop
      vertex 42.3262 22.229 -8.5
      vertex 31 27.9233 -8.5
      vertex 40.3678 24.404 -8.5
    endloop
  endfacet
  facet normal 0 0 -1
    outer loop
      vertex 31 -27.9233 -8.5
      vertex 35.3262 -27.3148 -8.5
      vertex 32.4634 -27.9233 -8.5
    endloop
  endfacet
  facet normal 0 0 -1
    outer loop
      vertex 40.3678 24.404 -8.5
      vertex 31 27.9233 -8.5
      vertex 38 26.1244 -8.5
    endloop
  endfacet
  facet normal 0 0 -1
    outer loop
      vertex 38 26.1244 -8.5
      vertex 31 27.9233 -8.5
      vertex 35.3262 27.3148 -8.5
    endloop
  endfacet
  facet normal 0 0 -1
    outer loop
      vertex 35.3262 27.3148 -8.5
      vertex 31 27.9233 -8.5
      vertex 32.4634 27.9233 -8.5
    endloop
  endfacet
  facet normal -1 0 0
    outer loop
      vertex -31 27.9233 -8.5
      vertex -31 28 8.5
      vertex -31 28 -8.5
    endloop
  endfacet
  facet normal -1 -0 0
    outer loop
      vertex -31 28 8.5
      vertex -31 27.9233 -8.5
      vertex -31 27.9233 8.5
    endloop
  endfacet
  facet normal -1 0 0
    outer loop
      vertex -31 -28 -8.5
      vertex -31 -27.9233 8.5
      vertex -31 -27.9233 -8.5
    endloop
  endfacet
  facet normal -1 -0 0
    outer loop
      vertex -31 -27.9233 8.5
      vertex -31 -28 -8.5
      vertex -31 -28 8.5
    endloop
  endfacet
  facet normal 0 1 -0
    outer loop
      vertex 31 28 -8.5
      vertex -31 28 8.5
      vertex 31 28 8.5
    endloop
  endfacet
  facet normal 0 1 0
    outer loop
      vertex -31 28 8.5
      vertex 31 28 -8.5
      vertex -31 28 -8.5
    endloop
  endfacet
  facet normal 0 -1 0
    outer loop
      vertex -31 -28 -8.5
      vertex 31 -28 8.5
      vertex -31 -28 8.5
    endloop
  endfacet
  facet normal 0 -1 -0
    outer loop
      vertex 31 -28 8.5
      vertex -31 -28 -8.5
      vertex 31 -28 -8.5
    endloop
  endfacet
  facet normal 1 -0 0
    outer loop
      vertex 45 -14 8.5
      vertex 45 14 -8.5
      vertex 45 14 8.5
    endloop
  endfacet
  facet normal 1 0 0
    outer loop
      vertex 45 14 -8.5
      vertex 45 -14 8.5
      vertex 45 -14 -8.5
    endloop
  endfacet
  facet normal -1 0 0
    outer loop
      vertex -45 -14 -8.5
      vertex -45 14 8.5
      vertex -45 14 -8.5
    endloop
  endfacet
  facet normal -1 -0 0
    outer loop
      vertex -45 14 8.5
      vertex -45 -14 -8.5
      vertex -45 -14 8.5
    endloop
  endfacet
  facet normal 0.951057 0.309017 0
    outer loop
      vertex 44.6941 16.9108 8.5
      vertex 43.7896 19.6943 -8.5
      vertex 43.7896 19.6943 8.5
    endloop
  endfacet
  facet normal 0.951057 0.309017 0
    outer loop
      vertex 43.7896 19.6943 -8.5
      vertex 44.6941 16.9108 8.5
      vertex 44.6941 16.9108 -8.5
    endloop
  endfacet
  facet normal 0.587782 0.809019 0
    outer loop
      vertex 40.3678 24.404 8.5
      vertex 40.26 24.4824 -2.5
      vertex 40.26 24.4824 8.5
    endloop
  endfacet
  facet normal 0.587782 0.809019 -0
    outer loop
      vertex 40.3678 24.404 -8.5
      vertex 40.26 24.4824 -2.5
      vertex 40.3678 24.404 8.5
    endloop
  endfacet
  facet normal 0.587786 0.809017 9.92022e-08
    outer loop
      vertex 38 26.1244 -8.5
      vertex 40.26 24.4824 -2.5
      vertex 40.3678 24.404 -8.5
    endloop
  endfacet
  facet normal 0.587786 0.809017 0
    outer loop
      vertex 40.26 24.4824 -2.5
      vertex 38 26.1244 -8.5
      vertex 38 26.1244 -2.5
    endloop
  endfacet
  facet normal 0.994522 0.104529 0
    outer loop
      vertex 45 14 8.5
      vertex 44.6941 16.9108 -8.5
      vertex 44.6941 16.9108 8.5
    endloop
  endfacet
  facet normal 0.994522 0.104529 0
    outer loop
      vertex 44.6941 16.9108 -8.5
      vertex 45 14 8.5
      vertex 45 14 -8.5
    endloop
  endfacet
  facet normal 0.866025 0.5 0
    outer loop
      vertex 43.7896 19.6943 8.5
      vertex 42.3262 22.229 -8.5
      vertex 42.3262 22.229 8.5
    endloop
  endfacet
  facet normal 0.866025 0.5 0
    outer loop
      vertex 42.3262 22.229 -8.5
      vertex 43.7896 19.6943 8.5
      vertex 43.7896 19.6943 -8.5
    endloop
  endfacet
  facet normal 0.207912 0.978148 -0
    outer loop
      vertex 35.3262 27.3148 -8.5
      vertex 32.4634 27.9233 8.5
      vertex 35.3262 27.3148 8.5
    endloop
  endfacet
  facet normal 0.207912 0.978148 0
    outer loop
      vertex 32.4634 27.9233 8.5
      vertex 35.3262 27.3148 -8.5
      vertex 32.4634 27.9233 -8.5
    endloop
  endfacet
  facet normal 0 1 -0
    outer loop
      vertex 32.4634 27.9233 -8.5
      vertex 31 27.9233 8.5
      vertex 32.4634 27.9233 8.5
    endloop
  endfacet
  facet normal 0 1 0
    outer loop
      vertex 31 27.9233 8.5
      vertex 32.4634 27.9233 -8.5
      vertex 31 27.9233 -8.5
    endloop
  endfacet
  facet normal 0.406737 0.913545 0
    outer loop
      vertex 38 26.1244 -2.5
      vertex 38 26.1244 -8.5
      vertex 37.1563 26.5 -2.5
    endloop
  endfacet
  facet normal 0.406736 0.913546 -0
    outer loop
      vertex 37.1563 26.5 -2.5
      vertex 35.3262 27.3148 8.5
      vertex 37.1563 26.5 8.5
    endloop
  endfacet
  facet normal 0.406736 0.913546 -2.81794e-08
    outer loop
      vertex 35.3262 27.3148 -8.5
      vertex 37.1563 26.5 -2.5
      vertex 38 26.1244 -8.5
    endloop
  endfacet
  facet normal 0.406736 0.913546 0
    outer loop
      vertex 37.1563 26.5 -2.5
      vertex 35.3262 27.3148 -8.5
      vertex 35.3262 27.3148 8.5
    endloop
  endfacet
  facet normal 0.743145 0.66913 0
    outer loop
      vertex 42.3262 22.229 8.5
      vertex 40.3678 24.404 -8.5
      vertex 40.3678 24.404 8.5
    endloop
  endfacet
  facet normal 0.743145 0.66913 0
    outer loop
      vertex 40.3678 24.404 -8.5
      vertex 42.3262 22.229 8.5
      vertex 42.3262 22.229 -8.5
    endloop
  endfacet
  facet normal -0.207912 0.978148 0
    outer loop
      vertex -32.4634 27.9233 -8.5
      vertex -35.3262 27.3148 8.5
      vertex -32.4634 27.9233 8.5
    endloop
  endfacet
  facet normal -0.207912 0.978148 0
    outer loop
      vertex -35.3262 27.3148 8.5
      vertex -32.4634 27.9233 -8.5
      vertex -35.3262 27.3148 -8.5
    endloop
  endfacet
  facet normal -0.994522 0.104529 0
    outer loop
      vertex -45 14 -8.5
      vertex -44.6941 16.9108 8.5
      vertex -44.6941 16.9108 -8.5
    endloop
  endfacet
  facet normal -0.994522 0.104529 0
    outer loop
      vertex -44.6941 16.9108 8.5
      vertex -45 14 -8.5
      vertex -45 14 8.5
    endloop
  endfacet
  facet normal -0.587786 0.809017 0
    outer loop
      vertex -38 26.1244 -8.5
      vertex -40.3678 24.404 8.5
      vertex -38 26.1244 8.5
    endloop
  endfacet
  facet normal -0.587786 0.809017 0
    outer loop
      vertex -40.3678 24.404 8.5
      vertex -38 26.1244 -8.5
      vertex -40.3678 24.404 -8.5
    endloop
  endfacet
  facet normal -0.951057 0.309017 0
    outer loop
      vertex -44.6941 16.9108 -8.5
      vertex -43.7896 19.6943 8.5
      vertex -43.7896 19.6943 -8.5
    endloop
  endfacet
  facet normal -0.951057 0.309017 0
    outer loop
      vertex -43.7896 19.6943 8.5
      vertex -44.6941 16.9108 -8.5
      vertex -44.6941 16.9108 8.5
    endloop
  endfacet
  facet normal -0.866025 0.5 0
    outer loop
      vertex -43.7896 19.6943 -8.5
      vertex -42.3262 22.229 8.5
      vertex -42.3262 22.229 -8.5
    endloop
  endfacet
  facet normal -0.866025 0.5 0
    outer loop
      vertex -42.3262 22.229 8.5
      vertex -43.7896 19.6943 -8.5
      vertex -43.7896 19.6943 8.5
    endloop
  endfacet
  facet normal 0 1 -0
    outer loop
      vertex -31 27.9233 -8.5
      vertex -32.4634 27.9233 8.5
      vertex -31 27.9233 8.5
    endloop
  endfacet
  facet normal 0 1 0
    outer loop
      vertex -32.4634 27.9233 8.5
      vertex -31 27.9233 -8.5
      vertex -32.4634 27.9233 -8.5
    endloop
  endfacet
  facet normal -0.406736 0.913546 0
    outer loop
      vertex -35.3262 27.3148 -8.5
      vertex -38 26.1244 8.5
      vertex -35.3262 27.3148 8.5
    endloop
  endfacet
  facet normal -0.406736 0.913546 0
    outer loop
      vertex -38 26.1244 8.5
      vertex -35.3262 27.3148 -8.5
      vertex -38 26.1244 -8.5
    endloop
  endfacet
  facet normal -0.743145 0.66913 0
    outer loop
      vertex -42.3262 22.229 -8.5
      vertex -40.3678 24.404 8.5
      vertex -40.3678 24.404 -8.5
    endloop
  endfacet
  facet normal -0.743145 0.66913 0
    outer loop
      vertex -40.3678 24.404 8.5
      vertex -42.3262 22.229 -8.5
      vertex -42.3262 22.229 8.5
    endloop
  endfacet
  facet normal 0.207912 -0.978148 0
    outer loop
      vertex 32.4634 -27.9233 -8.5
      vertex 35.3262 -27.3148 8.5
      vertex 32.4634 -27.9233 8.5
    endloop
  endfacet
  facet normal 0.207912 -0.978148 0
    outer loop
      vertex 35.3262 -27.3148 8.5
      vertex 32.4634 -27.9233 -8.5
      vertex 35.3262 -27.3148 -8.5
    endloop
  endfacet
  facet normal 0.406736 -0.913546 0
    outer loop
      vertex 35.3262 -27.3148 8.5
      vertex 37.1563 -26.5 -2.5
      vertex 37.1563 -26.5 8.5
    endloop
  endfacet
  facet normal 0.406736 -0.913546 0
    outer loop
      vertex 35.3262 -27.3148 -8.5
      vertex 37.1563 -26.5 -2.5
      vertex 35.3262 -27.3148 8.5
    endloop
  endfacet
  facet normal 0.406736 -0.913546 -2.81794e-08
    outer loop
      vertex 38 -26.1244 -8.5
      vertex 37.1563 -26.5 -2.5
      vertex 35.3262 -27.3148 -8.5
    endloop
  endfacet
  facet normal 0.406737 -0.913545 0
    outer loop
      vertex 37.1563 -26.5 -2.5
      vertex 38 -26.1244 -8.5
      vertex 38 -26.1244 -2.5
    endloop
  endfacet
  facet normal 0.743145 -0.66913 0
    outer loop
      vertex 40.3678 -24.404 8.5
      vertex 42.3262 -22.229 -8.5
      vertex 42.3262 -22.229 8.5
    endloop
  endfacet
  facet normal 0.743145 -0.66913 0
    outer loop
      vertex 42.3262 -22.229 -8.5
      vertex 40.3678 -24.404 8.5
      vertex 40.3678 -24.404 -8.5
    endloop
  endfacet
  facet normal 0.587786 -0.809017 0
    outer loop
      vertex 38 -26.1244 -2.5
      vertex 38 -26.1244 -8.5
      vertex 40.26 -24.4824 -2.5
    endloop
  endfacet
  facet normal 0.587782 -0.809019 0
    outer loop
      vertex 40.26 -24.4824 -2.5
      vertex 40.3678 -24.404 8.5
      vertex 40.26 -24.4824 8.5
    endloop
  endfacet
  facet normal 0.587782 -0.809019 0
    outer loop
      vertex 40.26 -24.4824 -2.5
      vertex 40.3678 -24.404 -8.5
      vertex 40.3678 -24.404 8.5
    endloop
  endfacet
  facet normal 0.587786 -0.809017 9.92022e-08
    outer loop
      vertex 40.3678 -24.404 -8.5
      vertex 40.26 -24.4824 -2.5
      vertex 38 -26.1244 -8.5
    endloop
  endfacet
  facet normal 0.994522 -0.104529 0
    outer loop
      vertex 44.6941 -16.9108 8.5
      vertex 45 -14 -8.5
      vertex 45 -14 8.5
    endloop
  endfacet
  facet normal 0.994522 -0.104529 0
    outer loop
      vertex 45 -14 -8.5
      vertex 44.6941 -16.9108 8.5
      vertex 44.6941 -16.9108 -8.5
    endloop
  endfacet
  facet normal 0.951057 -0.309017 0
    outer loop
      vertex 43.7896 -19.6943 8.5
      vertex 44.6941 -16.9108 -8.5
      vertex 44.6941 -16.9108 8.5
    endloop
  endfacet
  facet normal 0.951057 -0.309017 0
    outer loop
      vertex 44.6941 -16.9108 -8.5
      vertex 43.7896 -19.6943 8.5
      vertex 43.7896 -19.6943 -8.5
    endloop
  endfacet
  facet normal 0.866025 -0.5 0
    outer loop
      vertex 42.3262 -22.229 8.5
      vertex 43.7896 -19.6943 -8.5
      vertex 43.7896 -19.6943 8.5
    endloop
  endfacet
  facet normal 0.866025 -0.5 0
    outer loop
      vertex 43.7896 -19.6943 -8.5
      vertex 42.3262 -22.229 8.5
      vertex 42.3262 -22.229 -8.5
    endloop
  endfacet
  facet normal 0 -1 0
    outer loop
      vertex 31 -27.9233 -8.5
      vertex 32.4634 -27.9233 8.5
      vertex 31 -27.9233 8.5
    endloop
  endfacet
  facet normal 0 -1 -0
    outer loop
      vertex 32.4634 -27.9233 8.5
      vertex 31 -27.9233 -8.5
      vertex 32.4634 -27.9233 -8.5
    endloop
  endfacet
  facet normal -0.951057 -0.309017 0
    outer loop
      vertex -43.7896 -19.6943 -8.5
      vertex -44.6941 -16.9108 8.5
      vertex -44.6941 -16.9108 -8.5
    endloop
  endfacet
  facet normal -0.951057 -0.309017 0
    outer loop
      vertex -44.6941 -16.9108 8.5
      vertex -43.7896 -19.6943 -8.5
      vertex -43.7896 -19.6943 8.5
    endloop
  endfacet
  facet normal -0.207912 -0.978148 0
    outer loop
      vertex -35.3262 -27.3148 -8.5
      vertex -32.4634 -27.9233 8.5
      vertex -35.3262 -27.3148 8.5
    endloop
  endfacet
  facet normal -0.207912 -0.978148 -0
    outer loop
      vertex -32.4634 -27.9233 8.5
      vertex -35.3262 -27.3148 -8.5
      vertex -32.4634 -27.9233 -8.5
    endloop
  endfacet
  facet normal -0.743145 -0.66913 0
    outer loop
      vertex -40.3678 -24.404 -8.5
      vertex -42.3262 -22.229 8.5
      vertex -42.3262 -22.229 -8.5
    endloop
  endfacet
  facet normal -0.743145 -0.66913 0
    outer loop
      vertex -42.3262 -22.229 8.5
      vertex -40.3678 -24.404 -8.5
      vertex -40.3678 -24.404 8.5
    endloop
  endfacet
  facet normal -0.866025 -0.5 0
    outer loop
      vertex -42.3262 -22.229 -8.5
      vertex -43.7896 -19.6943 8.5
      vertex -43.7896 -19.6943 -8.5
    endloop
  endfacet
  facet normal -0.866025 -0.5 0
    outer loop
      vertex -43.7896 -19.6943 8.5
      vertex -42.3262 -22.229 -8.5
      vertex -42.3262 -22.229 8.5
    endloop
  endfacet
  facet normal -0.406736 -0.913546 0
    outer loop
      vertex -38 -26.1244 -8.5
      vertex -35.3262 -27.3148 8.5
      vertex -38 -26.1244 8.5
    endloop
  endfacet
  facet normal -0.406736 -0.913546 -0
    outer loop
      vertex -35.3262 -27.3148 8.5
      vertex -38 -26.1244 -8.5
      vertex -35.3262 -27.3148 -8.5
    endloop
  endfacet
  facet normal -0.994522 -0.104529 0
    outer loop
      vertex -44.6941 -16.9108 -8.5
      vertex -45 -14 8.5
      vertex -45 -14 -8.5
    endloop
  endfacet
  facet normal -0.994522 -0.104529 0
    outer loop
      vertex -45 -14 8.5
      vertex -44.6941 -16.9108 -8.5
      vertex -44.6941 -16.9108 8.5
    endloop
  endfacet
  facet normal 0 -1 0
    outer loop
      vertex -32.4634 -27.9233 -8.5
      vertex -31 -27.9233 8.5
      vertex -32.4634 -27.9233 8.5
    endloop
  endfacet
  facet normal 0 -1 -0
    outer loop
      vertex -31 -27.9233 8.5
      vertex -32.4634 -27.9233 -8.5
      vertex -31 -27.9233 -8.5
    endloop
  endfacet
  facet normal -0.587786 -0.809017 0
    outer loop
      vertex -40.3678 -24.404 -8.5
      vertex -38 -26.1244 8.5
      vertex -40.3678 -24.404 8.5
    endloop
  endfacet
  facet normal -0.587786 -0.809017 -0
    outer loop
      vertex -38 -26.1244 8.5
      vertex -40.3678 -24.404 -8.5
      vertex -38 -26.1244 -8.5
    endloop
  endfacet
  facet normal -1 0 0
    outer loop
      vertex 28.75 -16.25 -6
      vertex 28.75 26.25 8.5
      vertex 28.75 26.25 -6
    endloop
  endfacet
  facet normal -1 -0 0
    outer loop
      vertex 28.75 26.25 8.5
      vertex 28.75 -16.25 -6
      vertex 28.75 -16.25 8.5
    endloop
  endfacet
  facet normal 0 0 1
    outer loop
      vertex -26.75 -1.75 -6
      vertex 28.75 26.25 -6
      vertex -26.75 26.25 -6
    endloop
  endfacet
  facet normal 0 0 1
    outer loop
      vertex 28.75 26.25 -6
      vertex -26.75 -1.75 -6
      vertex 28.75 -16.25 -6
    endloop
  endfacet
  facet normal 0 0 1
    outer loop
      vertex -44.75 -16.25 -6
      vertex -26.75 -1.75 -6
      vertex -44.75 -1.75 -6
    endloop
  endfacet
  facet normal 0 0 1
    outer loop
      vertex -26.75 -1.75 -6
      vertex -44.75 -16.25 -6
      vertex 28.75 -16.25 -6
    endloop
  endfacet
  facet normal 1 -0 0
    outer loop
      vertex -26.75 -1.75 8.5
      vertex -26.75 26.25 -6
      vertex -26.75 26.25 8.5
    endloop
  endfacet
  facet normal 1 0 0
    outer loop
      vertex -26.75 26.25 -6
      vertex -26.75 -1.75 8.5
      vertex -26.75 -1.75 -6
    endloop
  endfacet
  facet normal 0 -1 0
    outer loop
      vertex -26.75 26.25 -6
      vertex 28.75 26.25 8.5
      vertex -26.75 26.25 8.5
    endloop
  endfacet
  facet normal 0 -1 -0
    outer loop
      vertex 28.75 26.25 8.5
      vertex -26.75 26.25 -6
      vertex 28.75 26.25 -6
    endloop
  endfacet
  facet normal 0 1 -0
    outer loop
      vertex 28.75 -16.25 -6
      vertex -44.75 -16.25 8.5
      vertex 28.75 -16.25 8.5
    endloop
  endfacet
  facet normal 0 1 0
    outer loop
      vertex -44.75 -16.25 8.5
      vertex 28.75 -16.25 -6
      vertex -44.75 -16.25 -6
    endloop
  endfacet
  facet normal 1 -0 0
    outer loop
      vertex -44.75 -16.25 8.5
      vertex -44.75 -1.75 -6
      vertex -44.75 -1.75 8.5
    endloop
  endfacet
  facet normal 1 0 0
    outer loop
      vertex -44.75 -1.75 -6
      vertex -44.75 -16.25 8.5
      vertex -44.75 -16.25 -6
    endloop
  endfacet
  facet normal 0 -1 0
    outer loop
      vertex -44.75 -1.75 -6
      vertex -26.75 -1.75 8.5
      vertex -44.75 -1.75 8.5
    endloop
  endfacet
  facet normal 0 -1 -0
    outer loop
      vertex -26.75 -1.75 8.5
      vertex -44.75 -1.75 -6
      vertex -26.75 -1.75 -6
    endloop
  endfacet
  facet normal -1 0 0
    outer loop
      vertex 40.26 -24.4824 -2.5
      vertex 40.26 24.4824 8.5
      vertex 40.26 24.4824 -2.5
    endloop
  endfacet
  facet normal -1 -0 0
    outer loop
      vertex 40.26 24.4824 8.5
      vertex 40.26 -24.4824 -2.5
      vertex 40.26 -24.4824 8.5
    endloop
  endfacet
  facet normal 0 0 1
    outer loop
      vertex 37.1563 26.5 -2.5
      vertex 40.26 24.4824 -2.5
      vertex 38 26.1244 -2.5
    endloop
  endfacet
  facet normal 0 0 1
    outer loop
      vertex 40.26 24.4824 -2.5
      vertex 29.26 26.5 -2.5
      vertex 40.26 -24.4824 -2.5
    endloop
  endfacet
  facet normal 0 0 1
    outer loop
      vertex 40.26 24.4824 -2.5
      vertex 37.1563 26.5 -2.5
      vertex 29.26 26.5 -2.5
    endloop
  endfacet
  facet normal 0 0 1
    outer loop
      vertex 29.26 -26.5 -2.5
      vertex 40.26 -24.4824 -2.5
      vertex 29.26 26.5 -2.5
    endloop
  endfacet
  facet normal 0 -0 1
    outer loop
      vertex 37.1563 -26.5 -2.5
      vertex 40.26 -24.4824 -2.5
      vertex 29.26 -26.5 -2.5
    endloop
  endfacet
  facet normal 0 0 1
    outer loop
      vertex 40.26 -24.4824 -2.5
      vertex 37.1563 -26.5 -2.5
      vertex 38 -26.1244 -2.5
    endloop
  endfacet
  facet normal 1 -0 0
    outer loop
      vertex 29.26 -26.5 8.5
      vertex 29.26 26.5 -2.5
      vertex 29.26 26.5 8.5
    endloop
  endfacet
  facet normal 1 0 0
    outer loop
      vertex 29.26 26.5 -2.5
      vertex 29.26 -26.5 8.5
      vertex 29.26 -26.5 -2.5
    endloop
  endfacet
  facet normal 0 -1 0
    outer loop
      vertex 29.26 26.5 -2.5
      vertex 37.1563 26.5 8.5
      vertex 29.26 26.5 8.5
    endloop
  endfacet
  facet normal 0 -1 -0
    outer loop
      vertex 37.1563 26.5 8.5
      vertex 29.26 26.5 -2.5
      vertex 37.1563 26.5 -2.5
    endloop
  endfacet
  facet normal 0 1 -0
    outer loop
      vertex 37.1563 -26.5 -2.5
      vertex 29.26 -26.5 8.5
      vertex 37.1563 -26.5 8.5
    endloop
  endfacet
  facet normal 0 1 0
    outer loop
      vertex 29.26 -26.5 8.5
      vertex 37.1563 -26.5 -2.5
      vertex 29.26 -26.5 -2.5
    endloop
  endfacet
endsolid OpenSCAD_Model
